<svg width="64" height="64" viewBox="0 0 64 64" fill="none" xmlns="http://www.w3.org/2000/svg">
<defs>
<filter id="filter51_i_17_1692" x="886" y="191.196" width="23.8037" height="25.8045" filterUnits="userSpaceOnUse" color-interpolation-filters="sRGB">
<feFlood flood-opacity="0" result="BackgroundImageFix"/>
<feBlend mode="normal" in="SourceGraphic" in2="BackgroundImageFix" result="shape"/>
<feColorMatrix in="SourceAlpha" type="matrix" values="0 0 0 0 0 0 0 0 0 0 0 0 0 0 0 0 0 0 127 0" result="hardAlpha"/>
<feOffset dy="2"/>
<feGaussianBlur stdDeviation="8"/>
<feComposite in2="hardAlpha" operator="arithmetic" k2="-1" k3="1"/>
<feColorMatrix type="matrix" values="0 0 0 0 1 0 0 0 0 1 0 0 0 0 1 0 0 0 1 0"/>
<feBlend mode="overlay" in2="shape" result="effect1_innerShadow_17_1692"/>
</filter>
<linearGradient id="paint76_linear_17_1692" x1="897.902" y1="191.196" x2="897.902" y2="215" gradientUnits="userSpaceOnUse">
<stop stop-color="#FFD358"/>
<stop offset="1" stop-color="#FA6C21"/>
</linearGradient>
<filter id="filter52_i_17_1692" x="864" y="199" width="46" height="36" filterUnits="userSpaceOnUse" color-interpolation-filters="sRGB">
<feFlood flood-opacity="0" result="BackgroundImageFix"/>
<feBlend mode="normal" in="SourceGraphic" in2="BackgroundImageFix" result="shape"/>
<feColorMatrix in="SourceAlpha" type="matrix" values="0 0 0 0 0 0 0 0 0 0 0 0 0 0 0 0 0 0 127 0" result="hardAlpha"/>
<feOffset dx="-2" dy="4"/>
<feGaussianBlur stdDeviation="2"/>
<feComposite in2="hardAlpha" operator="arithmetic" k2="-1" k3="1"/>
<feColorMatrix type="matrix" values="0 0 0 0 1 0 0 0 0 1 0 0 0 0 1 0 0 0 1 0"/>
<feBlend mode="normal" in2="shape" result="effect1_innerShadow_17_1692"/>
</filter>
<linearGradient id="paint77_linear_17_1692" x1="869.082" y1="199" x2="910.487" y2="230.357" gradientUnits="userSpaceOnUse">
<stop stop-color="white"/>
<stop offset="1" stop-color="#B4E6FB"/>
</linearGradient>
<linearGradient id="paint78_linear_17_1692" x1="875" y1="224" x2="875" y2="236" gradientUnits="userSpaceOnUse">
<stop stop-color="#4CAFFF"/>
<stop offset="1" stop-color="#8FD5FF"/>
</linearGradient>
</defs>
<g transform="translate(-1047.826 -227.424) scale(1.217391)">
<g filter="url(#filter51_i_17_1692)">
<path fill-rule="evenodd" clip-rule="evenodd" d="M895.612 191.238C897.415 190.873 898.713 192.932 897.605 194.402C896.772 195.507 896.316 196.848 896.316 198.263C896.316 201.809 899.191 204.684 902.737 204.684C904.152 204.684 905.492 204.228 906.597 203.395C908.066 202.288 910.125 203.584 909.761 205.388C908.639 210.945 903.737 215 898 215C891.373 215 886 209.627 886 203C886 197.263 890.055 192.361 895.612 191.238Z" fill="url(#paint76_linear_17_1692)"/>
</g>
<g filter="url(#filter52_i_17_1692)">
<path fill-rule="evenodd" clip-rule="evenodd" d="M882 199C873.163 199 866 206.163 866 215L866.003 215.331C866.167 223.373 872.283 230.016 880.204 230.9L880.468 230.927L880.56 230.952C880.702 230.983 880.849 231 881 231H899L899.294 230.996C905.262 230.823 910 225.954 910 220C910 213.925 905.075 209 899 209L898.568 209.008C898.138 209.025 897.711 209.067 897.29 209.133L896.915 209.198L896.811 208.936C894.397 203.033 888.604 199 882 199Z" fill="url(#paint77_linear_17_1692)"/>
</g>
<path fill-rule="evenodd" clip-rule="evenodd" d="M881 224C882.054 224 882.918 224.816 882.995 225.851L883 226V228H885C886.105 228 887 228.895 887 230C887 231.054 886.184 231.918 885.149 231.995L885 232H883V234C883 235.105 882.105 236 881 236C879.946 236 879.082 235.184 879.005 234.149L879 234V232H877C875.895 232 875 231.105 875 230C875 228.946 875.816 228.082 876.851 228.005L877 228H879V226C879 224.895 879.895 224 881 224ZM895 224C896.054 224 896.918 224.816 896.995 225.851L897 226V228H899C900.105 228 901 228.895 901 230C901 231.054 900.184 231.918 899.149 231.995L899 232H897V234C897 235.105 896.105 236 895 236C893.946 236 893.082 235.184 893.005 234.149L893 234V232H891C889.895 232 889 231.105 889 230C889 228.946 889.816 228.082 890.851 228.005L891 228H893V226C893 224.895 893.895 224 895 224Z" fill="url(#paint78_linear_17_1692)"/>
</g>
</svg>
