<svg width="64" height="64" viewBox="0 0 64 64" fill="none" xmlns="http://www.w3.org/2000/svg">
<defs>
<filter id="filter19_i_17_1692" x="1080" y="2.18231" width="22.8179" height="24.8177" filterUnits="userSpaceOnUse" color-interpolation-filters="sRGB">
<feFlood flood-opacity="0" result="BackgroundImageFix"/>
<feBlend mode="normal" in="SourceGraphic" in2="BackgroundImageFix" result="shape"/>
<feColorMatrix in="SourceAlpha" type="matrix" values="0 0 0 0 0 0 0 0 0 0 0 0 0 0 0 0 0 0 127 0" result="hardAlpha"/>
<feOffset dy="2"/>
<feGaussianBlur stdDeviation="4"/>
<feComposite in2="hardAlpha" operator="arithmetic" k2="-1" k3="1"/>
<feColorMatrix type="matrix" values="0 0 0 0 1 0 0 0 0 1 0 0 0 0 1 0 0 0 1 0"/>
<feBlend mode="overlay" in2="shape" result="effect1_innerShadow_17_1692"/>
</filter>
<linearGradient id="paint21_linear_17_1692" x1="1091.41" y1="2.18231" x2="1091.41" y2="25" gradientUnits="userSpaceOnUse">
<stop stop-color="#FFD358"/>
<stop offset="1" stop-color="#FA6C21"/>
</linearGradient>
<filter id="filter20_i_17_1692" x="1056" y="9" width="46" height="36" filterUnits="userSpaceOnUse" color-interpolation-filters="sRGB">
<feFlood flood-opacity="0" result="BackgroundImageFix"/>
<feBlend mode="normal" in="SourceGraphic" in2="BackgroundImageFix" result="shape"/>
<feColorMatrix in="SourceAlpha" type="matrix" values="0 0 0 0 0 0 0 0 0 0 0 0 0 0 0 0 0 0 127 0" result="hardAlpha"/>
<feOffset dx="-2" dy="4"/>
<feGaussianBlur stdDeviation="2"/>
<feComposite in2="hardAlpha" operator="arithmetic" k2="-1" k3="1"/>
<feColorMatrix type="matrix" values="0 0 0 0 1 0 0 0 0 1 0 0 0 0 1 0 0 0 1 0"/>
<feBlend mode="normal" in2="shape" result="effect1_innerShadow_17_1692"/>
</filter>
<linearGradient id="paint22_linear_17_1692" x1="1061.08" y1="9" x2="1102.49" y2="40.3565" gradientUnits="userSpaceOnUse">
<stop stop-color="white"/>
<stop offset="1" stop-color="#B4E6FB"/>
</linearGradient>
<linearGradient id="paint23_linear_17_1692" x1="1069" y1="36.9995" x2="1069" y2="46.0005" gradientUnits="userSpaceOnUse">
<stop stop-color="#4CAFFF"/>
<stop offset="1" stop-color="#8FD5FF"/>
</linearGradient>
</defs>
<g transform="translate(-1259.107 3.782) scale(1.196124)">
<g filter="url(#filter19_i_17_1692)">
<path fill-rule="evenodd" clip-rule="evenodd" d="M1089 7C1093.97 7 1098 11.0294 1098 16C1098 20.9706 1093.97 25 1089 25C1084.03 25 1080 20.9706 1080 16C1080 11.0294 1084.03 7 1089 7ZM1100.82 16.0838C1101.92 16.0838 1102.82 16.9792 1102.82 18.0838C1102.82 19.1884 1101.92 20.0838 1100.82 20.0838C1099.71 20.0838 1098.82 19.1884 1098.82 18.0838C1098.82 16.9792 1099.71 16.0838 1100.82 16.0838ZM1098.83 7.11709C1099.93 7.11709 1100.83 8.01252 1100.83 9.11709C1100.83 10.2217 1099.93 11.1171 1098.83 11.1171C1097.73 11.1171 1096.83 10.2217 1096.83 9.11709C1096.83 8.01252 1097.73 7.11709 1098.83 7.11709ZM1082.12 4.17018C1083.22 4.17018 1084.12 5.06561 1084.12 6.17018C1084.12 7.27475 1083.22 8.17018 1082.12 8.17018C1081.01 8.17018 1080.12 7.27475 1080.12 6.17018C1080.12 5.06561 1081.01 4.17018 1082.12 4.17018ZM1091.08 2.18231C1092.19 2.18231 1093.08 3.07774 1093.08 4.18231C1093.08 5.28688 1092.19 6.18231 1091.08 6.18231C1089.98 6.18231 1089.08 5.28688 1089.08 4.18231C1089.08 3.07774 1089.98 2.18231 1091.08 2.18231Z" fill="url(#paint21_linear_17_1692)"/>
</g>
<g filter="url(#filter20_i_17_1692)">
<path fill-rule="evenodd" clip-rule="evenodd" d="M1074 9C1065.16 9 1058 16.1634 1058 25L1058 25.3313C1058.17 33.3732 1064.28 40.0157 1072.2 40.9002L1072.47 40.927L1072.56 40.9515C1072.7 40.9833 1072.85 41 1073 41H1091L1091.29 40.996C1097.26 40.8234 1102 35.9545 1102 30C1102 23.9249 1097.08 19 1091 19L1090.57 19.0083C1090.14 19.025 1089.71 19.0666 1089.29 19.1325L1088.92 19.198L1088.81 18.9358C1086.4 13.033 1080.6 9 1074 9Z" fill="url(#paint22_linear_17_1692)"/>
</g>
<path fill-rule="evenodd" clip-rule="evenodd" d="M1071.14 38.2572C1071.55 37.2316 1072.72 36.7328 1073.74 37.143C1074.72 37.5337 1075.22 38.6081 1074.91 39.5954L1074.86 39.7428L1072.86 44.7428C1072.45 45.7683 1071.28 46.2672 1070.26 45.8569C1069.28 45.4663 1068.78 44.3919 1069.09 43.4046L1069.14 43.2572L1071.14 38.2572ZM1080.14 38.2572C1080.55 37.2316 1081.72 36.7328 1082.74 37.143C1083.72 37.5337 1084.22 38.6081 1083.91 39.5954L1083.86 39.7428L1081.86 44.7428C1081.45 45.7683 1080.28 46.2672 1079.26 45.8569C1078.28 45.4663 1077.78 44.3919 1078.09 43.4046L1078.14 43.2572L1080.14 38.2572ZM1089.14 38.2572C1089.55 37.2316 1090.72 36.7328 1091.74 37.143C1092.72 37.5337 1093.22 38.6081 1092.91 39.5954L1092.86 39.7428L1090.86 44.7428C1090.45 45.7683 1089.28 46.2672 1088.26 45.8569C1087.28 45.4663 1086.78 44.3919 1087.09 43.4046L1087.14 43.2572L1089.14 38.2572Z" fill="url(#paint23_linear_17_1692)"/>
</g>
</svg>
