<svg width="64" height="64" viewBox="0 0 64 64" fill="none" xmlns="http://www.w3.org/2000/svg">
<defs>
<filter id="filter38_i_17_1692" x="1156" y="99" width="40" height="42" filterUnits="userSpaceOnUse" color-interpolation-filters="sRGB">
<feFlood flood-opacity="0" result="BackgroundImageFix"/>
<feBlend mode="normal" in="SourceGraphic" in2="BackgroundImageFix" result="shape"/>
<feColorMatrix in="SourceAlpha" type="matrix" values="0 0 0 0 0 0 0 0 0 0 0 0 0 0 0 0 0 0 127 0" result="hardAlpha"/>
<feOffset dy="2"/>
<feGaussianBlur stdDeviation="4"/>
<feComposite in2="hardAlpha" operator="arithmetic" k2="-1" k3="1"/>
<feColorMatrix type="matrix" values="0 0 0 0 0.831313 0 0 0 0 0.98288 0 0 0 0 0.98288 0 0 0 1 0"/>
<feBlend mode="normal" in2="shape" result="effect1_innerShadow_17_1692"/>
</filter>
<linearGradient id="paint54_linear_17_1692" x1="1156" y1="99" x2="1156" y2="139" gradientUnits="userSpaceOnUse">
<stop stop-color="#8FD5FF"/>
<stop offset="1" stop-color="#4CAFFF"/>
</linearGradient>
</defs>
<g transform="translate(-1536.000 -128.000) scale(1.333333)">
<g filter="url(#filter38_i_17_1692)">
<path fill-rule="evenodd" clip-rule="evenodd" d="M1170.11 104.336C1176.41 108.535 1182 117.663 1182 126C1182 133.18 1176.18 139 1169 139C1161.82 139 1156 133.18 1156 126C1156 117.663 1161.59 108.535 1167.89 104.336C1168.56 103.888 1169.44 103.888 1170.11 104.336ZM1190.15 99.3629C1193.24 101.536 1196 106.387 1196 110.737C1196 114.726 1192.89 118 1189 118C1185.11 118 1182 114.726 1182 110.737C1182 106.387 1184.76 101.536 1187.85 99.3629C1188.54 98.879 1189.46 98.879 1190.15 99.3629Z" fill="url(#paint54_linear_17_1692)"/>
</g>
</g>
</svg>
