<svg width="28" height="29" viewBox="0 0 28 29" fill="none" xmlns="http://www.w3.org/2000/svg">
<path d="M26.9905 9.72648C26.3816 8.2574 25.1473 6.67139 24.1784 6.17039C24.967 7.72015 25.4232 9.27459 25.5976 10.4344C25.5976 10.4344 25.5976 10.4426 25.6005 10.4578C24.0156 6.49777 21.3277 4.90065 19.1327 1.42407C19.0213 1.24869 18.9105 1.07331 18.802 0.885658C18.7407 0.779846 18.6911 0.683973 18.648 0.593361C18.557 0.417575 18.4867 0.231792 18.4386 0.0397498C18.439 0.0306302 18.4359 0.0216936 18.4301 0.0146728C18.4243 0.0076519 18.4161 0.00304708 18.4071 0.00175114C18.3985 -0.000583714 18.3894 -0.000583714 18.3808 0.00175114C18.3785 0.00280981 18.3763 0.00418711 18.3744 0.0058433C18.3709 0.0058433 18.3674 0.00993547 18.3639 0.0111047L18.3697 0.00350493C14.8483 2.07063 13.6536 5.89446 13.544 7.80784C12.1368 7.90428 10.7913 8.42358 9.68302 9.29797C9.56718 9.19981 9.44606 9.10808 9.3202 9.02322C9.00082 7.9027 8.98732 6.71683 9.28112 5.58931C7.84091 6.24697 6.72095 7.28463 5.90664 8.20303H5.90023C5.34433 7.49742 5.38341 5.17015 5.41491 4.68435C5.40849 4.65395 5.00076 4.89656 4.94826 4.93339C4.45773 5.2841 3.9992 5.67771 3.57805 6.1096C3.0988 6.59655 2.66096 7.12276 2.26909 7.68274C1.36752 8.96323 0.72814 10.4101 0.387904 11.9398C0.381488 11.9702 0.375655 12.0017 0.369238 12.0327C0.342989 12.1561 0.247909 12.7751 0.230992 12.9096V12.9406C0.107042 13.5803 0.0298397 14.2282 0 14.8791V14.951C0 22.7097 6.27646 29 14.0182 29C20.9521 29 26.7088 23.9549 27.8364 17.328C27.8597 17.1485 27.8789 16.9673 27.8999 16.786C28.1788 14.3763 27.869 11.8439 26.9905 9.72648ZM10.8327 20.7239C10.8981 20.7549 10.9599 20.7894 11.027 20.8197L11.0363 20.8256C10.9692 20.7929 10.9004 20.759 10.8327 20.7239Z" fill="url(#paint0_linear_9_2)"/>
<path d="M26.9905 9.72648C26.3816 8.2574 25.1473 6.67139 24.1784 6.17039C24.967 7.72015 25.4232 9.27459 25.5976 10.4344L25.5975 10.4631C26.9205 14.0572 26.1995 17.7121 25.1612 19.9452C23.5548 23.4002 19.6658 26.9416 13.5778 26.7692C7.00557 26.5821 1.2115 21.6885 0.129455 15.2842C-0.0677055 14.2735 0.129455 13.7608 0.228618 12.9406C0.107872 13.5725 0.0617904 13.7555 0.00170898 14.8791V14.951C0.00170898 22.7098 6.27817 29 14.0199 29C20.9538 29 26.7105 23.9549 27.8381 17.328C27.8614 17.1485 27.8806 16.9673 27.9016 16.7861C28.1787 14.3764 27.869 11.8439 26.9905 9.72648Z" fill="url(#paint1_radial_9_2)"/>
<path d="M26.9905 9.72648C26.3816 8.2574 25.1473 6.67139 24.1784 6.17039C24.967 7.72015 25.4232 9.27459 25.5976 10.4344L25.5975 10.4631C26.9205 14.0572 26.1995 17.7121 25.1612 19.9452C23.5548 23.4002 19.6658 26.9416 13.5778 26.7692C7.00557 26.5821 1.2115 21.6885 0.129455 15.2842C-0.0677055 14.2735 0.129455 13.7608 0.228618 12.9406C0.107872 13.5725 0.0617904 13.7555 0.00170898 14.8791V14.951C0.00170898 22.7098 6.27817 29 14.0199 29C20.9538 29 26.7105 23.9549 27.8381 17.328C27.8614 17.1485 27.8806 16.9673 27.9016 16.7861C28.1787 14.3764 27.869 11.8439 26.9905 9.72648Z" fill="url(#paint2_radial_9_2)"/>
<path d="M20.1781 11.3774C20.209 11.399 20.2364 11.4207 20.2656 11.4423C19.9137 10.8162 19.4754 10.2431 18.9636 9.73997C14.6062 5.37305 17.822 0.270665 18.3639 0.0111047L18.3697 0.00350493C14.8483 2.07063 13.6536 5.89446 13.544 7.80784C13.7073 7.79673 13.8695 7.78274 14.0358 7.78274C16.6636 7.78274 18.9525 9.23137 20.1781 11.3774Z" fill="url(#paint3_radial_9_2)"/>
<path d="M14.0445 12.2497C14.0218 12.6004 12.7898 13.8047 12.3587 13.8047C8.37236 13.8047 7.72546 16.2214 7.72546 16.2214C7.90046 18.257 9.31495 19.9329 11.027 20.8197C11.1051 20.8601 11.1845 20.8964 11.2609 20.9326C11.398 20.9911 11.5357 21.0496 11.6728 21.1016C12.2599 21.3091 12.8747 21.4274 13.4968 21.4523C20.4837 21.7809 21.8382 13.0798 16.7954 10.5532C18.0863 10.3281 19.4268 10.849 20.1751 11.3757C18.9502 9.22964 16.6607 7.78102 14.0328 7.78102C13.8666 7.78102 13.7039 7.79505 13.5405 7.80615C12.1344 7.90379 10.7901 8.42361 9.68302 9.29797C9.8971 9.47978 10.1386 9.72187 10.6467 10.2235C11.5998 11.1658 14.0393 12.1357 14.0445 12.2497Z" fill="url(#paint4_radial_9_2)"/>
<path d="M14.0445 12.2497C14.0218 12.6004 12.7898 13.8047 12.3587 13.8047C8.37236 13.8047 7.72546 16.2214 7.72546 16.2214C7.90046 18.257 9.31495 19.9329 11.027 20.8197C11.1051 20.8601 11.1845 20.8964 11.2609 20.9326C11.398 20.9911 11.5357 21.0496 11.6728 21.1016C12.2599 21.3091 12.8747 21.4274 13.4968 21.4523C20.4837 21.7809 21.8382 13.0798 16.7954 10.5532C18.0863 10.3281 19.4268 10.849 20.1751 11.3757C18.9502 9.22964 16.6607 7.78102 14.0328 7.78102C13.8666 7.78102 13.7039 7.79505 13.5405 7.80615C12.1344 7.90379 10.7901 8.42361 9.68302 9.29797C9.8971 9.47978 10.1386 9.72187 10.6467 10.2235C11.5998 11.1658 14.0393 12.1357 14.0445 12.2497Z" fill="url(#paint5_radial_9_2)"/>
<path d="M9.03145 8.83093C9.14519 8.90459 9.23852 8.96656 9.3231 9.02327C9.00372 7.90276 8.99022 6.71688 9.28402 5.58936C7.84382 6.24703 6.72385 7.28468 5.90955 8.20308C5.97546 8.20133 8.00889 8.1645 9.03145 8.83093Z" fill="url(#paint6_radial_9_2)"/>
<path d="M0.129455 15.2842C1.2115 21.6885 7.00594 26.5821 13.5828 26.7692C19.6709 26.9416 23.5575 23.4002 25.1663 19.9452C26.2046 17.7115 26.9255 14.0572 25.6026 10.4631V10.4362C25.6026 10.4397 25.6026 10.4444 25.6055 10.4596C26.1025 13.714 24.4511 16.8667 21.8694 18.9987C21.8667 19.0047 21.8642 19.0108 21.8618 19.0169C16.8307 23.1225 12.0166 21.4938 11.0419 20.8291C10.9742 20.7964 10.906 20.7625 10.8383 20.7274C7.90482 19.3244 6.69328 16.644 6.95285 14.3471C4.47668 14.3471 3.63204 12.2531 3.63204 12.2531C3.63204 12.2531 5.85564 10.6642 8.78621 12.0462C11.5004 13.3264 14.0495 12.2537 14.0495 12.2531C14.0442 12.1391 11.6048 11.1663 10.6534 10.2269C10.1453 9.72532 9.90384 9.4833 9.68976 9.30149C9.57393 9.20332 9.45281 9.1116 9.32694 9.02673C9.24353 8.96827 9.15195 8.90981 9.03529 8.8344C8.01274 8.16796 5.9793 8.20479 5.91222 8.20654H5.9058C5.3499 7.50094 5.38899 5.17367 5.42049 4.68787C5.41407 4.65747 5.00633 4.90007 4.95383 4.9369C4.46331 5.28761 4.00478 5.68122 3.58363 6.11311C3.10438 6.60006 2.66654 7.12627 2.27467 7.68625C1.3731 8.96675 0.733717 10.4136 0.393481 11.9433C0.382399 11.9702 -0.116704 14.1525 0.129455 15.2842Z" fill="url(#paint7_radial_9_2)"/>
<path d="M18.9636 9.73997C19.4754 10.2431 19.9137 10.8162 20.2656 11.4423C20.3385 11.4972 20.4085 11.5557 20.4755 11.6176C23.6534 14.55 21.9909 18.7012 21.8644 18.9993C24.4461 16.8673 26.0975 13.7146 25.6005 10.4601C24.0156 6.49777 21.3277 4.90065 19.1327 1.42407C19.0213 1.24869 18.9105 1.07331 18.802 0.885658C18.7407 0.779846 18.6911 0.683973 18.648 0.593361C18.557 0.417575 18.4867 0.231792 18.4386 0.0397498C18.439 0.0306302 18.4359 0.0216936 18.4301 0.0146728C18.4243 0.0076519 18.4161 0.00304708 18.4071 0.00175114C18.3985 -0.000583714 18.3894 -0.000583714 18.3808 0.00175114C18.3785 0.00280981 18.3763 0.00418711 18.3744 0.0058433C18.3709 0.0058433 18.3674 0.00993547 18.3639 0.0111047C17.822 0.270665 14.6062 5.37305 18.9636 9.73997Z" fill="url(#paint8_radial_9_2)"/>
<path d="M20.4743 11.6148C20.4073 11.5528 20.3373 11.4942 20.2644 11.4394C20.2358 11.4177 20.206 11.3961 20.1769 11.3745C19.4285 10.8483 18.088 10.3269 16.7971 10.552C21.8393 13.0786 20.4854 21.7797 13.4985 21.4511C12.8764 21.4261 12.2616 21.3079 11.6745 21.1004C11.5374 21.0489 11.3997 20.9922 11.2627 20.9314C11.1833 20.8952 11.1046 20.8589 11.0293 20.8186L11.0387 20.8245C12.0134 21.4909 16.8275 23.1196 21.8585 19.0122C21.8585 19.0122 21.8615 19.0046 21.8661 18.9941C21.991 18.7012 23.6534 14.55 20.4743 11.6148Z" fill="url(#paint9_radial_9_2)"/>
<path d="M7.72546 16.2214C7.72546 16.2214 8.37236 13.8047 12.3587 13.8047C12.7898 13.8047 14.0218 12.5992 14.0445 12.2497C14.0673 11.9001 11.4953 13.323 8.78115 12.0427C5.85058 10.6607 3.62698 12.2496 3.62698 12.2496C3.62698 12.2496 4.47162 14.3437 6.94779 14.3437C6.68822 16.6405 7.89925 19.3185 10.8327 20.7239C10.8981 20.7549 10.9599 20.7894 11.027 20.8197C9.31495 19.9347 7.90221 18.257 7.72546 16.2214Z" fill="url(#paint10_radial_9_2)"/>
<path d="M26.9905 9.72648C26.3816 8.2574 25.1473 6.67139 24.1784 6.17039C24.967 7.72015 25.4232 9.27459 25.5976 10.4344C25.5976 10.4344 25.5976 10.4426 25.6005 10.4578C24.0156 6.49777 21.3277 4.90065 19.1327 1.42407C19.0213 1.24869 18.9105 1.07331 18.802 0.885658C18.7407 0.779846 18.6911 0.683973 18.648 0.593361C18.557 0.417575 18.4867 0.231792 18.4386 0.0397498C18.439 0.0306302 18.4359 0.0216936 18.4301 0.0146728C18.4243 0.0076519 18.4161 0.00304708 18.4071 0.00175114C18.3985 -0.000583714 18.3894 -0.000583714 18.3808 0.00175114C18.3785 0.00280981 18.3763 0.00418711 18.3744 0.0058433C18.3709 0.0058433 18.3674 0.00993547 18.3639 0.0111047L18.3697 0.00350493C14.8483 2.07063 13.6536 5.89446 13.544 7.80784C13.7073 7.79673 13.8695 7.78274 14.0358 7.78274C16.6636 7.78274 18.9525 9.23137 20.1781 11.3774C19.4297 10.8513 18.0898 10.3298 16.7989 10.5549C21.841 13.0815 20.4872 21.7826 13.5002 21.454C12.8782 21.429 12.2633 21.3108 11.6762 21.1033C11.5391 21.0518 11.4015 20.9951 11.2644 20.9343C11.1851 20.8981 11.1063 20.8618 11.0311 20.8215L11.0404 20.8273C10.9727 20.7946 10.9045 20.7607 10.8368 20.7256C10.9021 20.7566 10.964 20.7911 11.0311 20.8215C9.31553 19.9347 7.90221 18.257 7.72546 16.2214C7.72546 16.2214 8.37236 13.8047 12.3587 13.8047C12.7898 13.8047 14.0218 12.5992 14.0445 12.2497C14.0393 12.1357 11.5998 11.1628 10.6484 10.2234C10.1403 9.72181 9.89885 9.47978 9.68477 9.29797C9.56893 9.19981 9.44781 9.10808 9.32195 9.02322C9.00257 7.9027 8.98907 6.71683 9.28287 5.58931C7.84266 6.24697 6.7227 7.28463 5.90839 8.20303H5.90198C5.34608 7.49742 5.38516 5.17015 5.41666 4.68435C5.41024 4.65395 5.00251 4.89656 4.95001 4.93339C4.45948 5.2841 4.00095 5.67771 3.5798 6.1096C3.10055 6.59655 2.66271 7.12276 2.27084 7.68274C1.36927 8.96323 0.72989 10.4101 0.389654 11.9398C0.383238 11.9702 0.377405 12.0017 0.370988 12.0327C0.344739 12.1561 0.225743 12.7839 0.20941 12.9184C0.20941 12.9084 0.20941 12.9289 0.20941 12.9184C0.100189 13.5671 0.0302578 14.2219 0 14.8791V14.951C0 22.7097 6.27646 29 14.0182 29C20.9521 29 26.7088 23.9549 27.8364 17.328C27.8597 17.1485 27.8789 16.9673 27.8999 16.786C28.1788 14.3763 27.869 11.8439 26.9905 9.72648Z" fill="url(#paint11_linear_9_2)"/>
<defs>
<linearGradient id="paint0_linear_9_2" x1="25.1357" y1="4.49261" x2="1.81456" y2="26.9444" gradientUnits="userSpaceOnUse">
<stop offset="0.05" stop-color="#FFF44F"/>
<stop offset="0.11" stop-color="#FFE847"/>
<stop offset="0.22" stop-color="#FFC830"/>
<stop offset="0.37" stop-color="#FF980E"/>
<stop offset="0.4" stop-color="#FF8B16"/>
<stop offset="0.46" stop-color="#FF672A"/>
<stop offset="0.53" stop-color="#FF3647"/>
<stop offset="0.7" stop-color="#E31587"/>
</linearGradient>
<radialGradient id="paint1_radial_9_2" cx="0" cy="0" r="1" gradientUnits="userSpaceOnUse" gradientTransform="translate(24.0591 -3.74938) scale(29.2264 37.205)">
<stop offset="0.13" stop-color="#FFBD4F"/>
<stop offset="0.19" stop-color="#FFAC31"/>
<stop offset="0.25" stop-color="#FF9D17"/>
<stop offset="0.28" stop-color="#FF980E"/>
<stop offset="0.4" stop-color="#FF563B"/>
<stop offset="0.47" stop-color="#FF3750"/>
<stop offset="0.71" stop-color="#F5156C"/>
<stop offset="0.78" stop-color="#EB0878"/>
<stop offset="0.86" stop-color="#E50080"/>
</radialGradient>
<radialGradient id="paint2_radial_9_2" cx="0" cy="0" r="1" gradientUnits="userSpaceOnUse" gradientTransform="translate(13.3797 11.4605) scale(29.2264 37.205)">
<stop offset="0.3" stop-color="#960E18"/>
<stop offset="0.35" stop-color="#B11927" stop-opacity="0.74"/>
<stop offset="0.43" stop-color="#DB293D" stop-opacity="0.34"/>
<stop offset="0.5" stop-color="#F5334B" stop-opacity="0.09"/>
<stop offset="0.53" stop-color="#FF3750" stop-opacity="0"/>
</radialGradient>
<radialGradient id="paint3_radial_9_2" cx="0" cy="0" r="1" gradientUnits="userSpaceOnUse" gradientTransform="translate(14 -8.69985) scale(88.1888 53.7938)">
<stop offset="0.13" stop-color="#FFF44F"/>
<stop offset="0.25" stop-color="#FFDC3E"/>
<stop offset="0.51" stop-color="#FF9D12"/>
<stop offset="0.53" stop-color="#FF980E"/>
</radialGradient>
<radialGradient id="paint4_radial_9_2" cx="0" cy="0" r="1" gradientUnits="userSpaceOnUse" gradientTransform="translate(5.44966 31.9289) scale(31.2955 29.562)">
<stop offset="0.35" stop-color="#3A8EE6"/>
<stop offset="0.47" stop-color="#5C79F0"/>
<stop offset="0.67" stop-color="#9059FF"/>
<stop offset="1" stop-color="#C139E6"/>
</radialGradient>
<radialGradient id="paint5_radial_9_2" cx="0" cy="0" r="1" gradientTransform="matrix(16.0952 -3.76173 4.64604 17.8682 13.6629 8.33221)" gradientUnits="userSpaceOnUse">
<stop offset="0.21" stop-color="#9059FF" stop-opacity="0"/>
<stop offset="0.28" stop-color="#8C4FF3" stop-opacity="0.06"/>
<stop offset="0.75" stop-color="#7716A8" stop-opacity="0.45"/>
<stop offset="0.97" stop-color="#6E008B" stop-opacity="0.6"/>
</radialGradient>
<radialGradient id="paint6_radial_9_2" cx="0" cy="0" r="1" gradientUnits="userSpaceOnUse" gradientTransform="translate(58.2536 -30.1404) scale(82.1149 84.7289)">
<stop stop-color="#FFE226"/>
<stop offset="0.12" stop-color="#FFDB27"/>
<stop offset="0.3" stop-color="#FFC82A"/>
<stop offset="0.5" stop-color="#FFA930"/>
<stop offset="0.73" stop-color="#FF7E37"/>
<stop offset="0.79" stop-color="#FF7139"/>
</radialGradient>
<radialGradient id="paint7_radial_9_2" cx="0" cy="0" r="1" gradientUnits="userSpaceOnUse" gradientTransform="translate(22.1997 -11.8523) scale(45.5433 56.1944)">
<stop offset="0.11" stop-color="#FFF44F"/>
<stop offset="0.46" stop-color="#FF980E"/>
<stop offset="0.62" stop-color="#FF5634"/>
<stop offset="0.72" stop-color="#FF3647"/>
<stop offset="0.9" stop-color="#E31587"/>
</radialGradient>
<radialGradient id="paint8_radial_9_2" cx="0" cy="0" r="1" gradientTransform="matrix(9.7602 47.3821 -63.4413 3.35025 0.120958 0.509415)" gradientUnits="userSpaceOnUse">
<stop stop-color="#FFF44F"/>
<stop offset="0.06" stop-color="#FFE847"/>
<stop offset="0.17" stop-color="#FFC830"/>
<stop offset="0.3" stop-color="#FF980E"/>
<stop offset="0.36" stop-color="#FF8B16"/>
<stop offset="0.45" stop-color="#FF672A"/>
<stop offset="0.57" stop-color="#FF3647"/>
<stop offset="0.74" stop-color="#E31587"/>
</radialGradient>
<radialGradient id="paint9_radial_9_2" cx="0" cy="0" r="1" gradientUnits="userSpaceOnUse" gradientTransform="translate(4.29633 -12.3184) scale(65.5958 69.1256)">
<stop offset="0.14" stop-color="#FFF44F"/>
<stop offset="0.48" stop-color="#FF980E"/>
<stop offset="0.59" stop-color="#FF5634"/>
<stop offset="0.66" stop-color="#FF3647"/>
<stop offset="0.9" stop-color="#E31587"/>
</radialGradient>
<radialGradient id="paint10_radial_9_2" cx="0" cy="0" r="1" gradientUnits="userSpaceOnUse" gradientTransform="translate(43.5084 -12.968) scale(78.4409 90.7957)">
<stop offset="0.09" stop-color="#FFF44F"/>
<stop offset="0.23" stop-color="#FFE141"/>
<stop offset="0.51" stop-color="#FFAF1E"/>
<stop offset="0.63" stop-color="#FF980E"/>
</radialGradient>
<linearGradient id="paint11_linear_9_2" x1="24.855" y1="4.37218" x2="5.01043" y2="24.1739" gradientUnits="userSpaceOnUse">
<stop offset="0.17" stop-color="#FFF44F" stop-opacity="0.8"/>
<stop offset="0.27" stop-color="#FFF44F" stop-opacity="0.63"/>
<stop offset="0.49" stop-color="#FFF44F" stop-opacity="0.22"/>
<stop offset="0.6" stop-color="#FFF44F" stop-opacity="0"/>
</linearGradient>
</defs>
</svg>
