<svg xmlns="http://www.w3.org/2000/svg" viewBox="0 0 320 240" fill="none" aria-hidden="true" class="ww-empty-ill">
  <ellipse cx="160" cy="218" rx="76" ry="6" fill="var(--ww-ink)" opacity="0.07"/>
  <!-- ??????????? + ????????? -->
  <rect x="48" y="64" width="72" height="128" rx="10" fill="var(--ww-inset)" stroke="var(--ww-ink-faint)" stroke-opacity="0.35" stroke-width="1.25"/>
  <path d="M60 80h48" stroke="var(--ww-ink-faint)" stroke-opacity="0.25" stroke-width="1.25" stroke-linecap="round"/>
  <rect x="58" y="92" width="44" height="5" rx="2" fill="var(--ww-ink-muted)" opacity="0.35"/>
  <rect x="58" y="106" width="36" height="4" rx="2" fill="var(--ww-ink-faint)" opacity="0.16"/>
  <rect x="58" y="118" width="40" height="4" rx="2" fill="var(--ww-ink-faint)" opacity="0.14"/>
  <rect x="58" y="130" width="30" height="4" rx="2" fill="var(--ww-ink-faint)" opacity="0.14"/>
  <rect x="58" y="142" width="38" height="4" rx="2" fill="var(--ww-ink-faint)" opacity="0.14"/>
  <path d="M128 128h28" stroke="var(--ww-ink-faint)" stroke-opacity="0.3" stroke-width="1.25" stroke-linecap="round" stroke-dasharray="4 5"/>
  <path d="M160 128l10-8 10 8" stroke="var(--ww-ink-muted)" stroke-width="1.75" stroke-linecap="round" stroke-linejoin="round"/>
  <rect x="184" y="64" width="88" height="128" rx="10" fill="var(--ww-elevated)" stroke="var(--ww-ink-muted)" stroke-opacity="0.38" stroke-width="1.25"/>
  <rect x="200" y="88" width="56" height="48" rx="8" fill="var(--ww-inset)" stroke="var(--ww-ink-faint)" stroke-opacity="0.22" stroke-width="1" stroke-dasharray="5 4"/>
  <rect x="200" y="148" width="40" height="5" rx="2" fill="var(--ww-ink-faint)" opacity="0.2"/>
  <rect x="200" y="160" width="52" height="4" rx="2" fill="var(--ww-ink-faint)" opacity="0.12"/>
</svg>
