<svg xmlns="http://www.w3.org/2000/svg" xmlns:xlink="http://www.w3.org/1999/xlink" fill="none" version="1.1" width="186.2767333984375" height="153.3909912109375" viewBox="0 0 186.2767333984375 153.3909912109375"><defs><linearGradient x1="0.5000821352005005" y1="0.034739118069410324" x2="0.5000821352005005" y2="0.5960350036621094" id="master_svg0__054995"><stop offset="0%" stop-color="#B0BACC" stop-opacity="1"/><stop offset="100%" stop-color="#969EAE" stop-opacity="1"/></linearGradient><linearGradient x1="0.4996729791164398" y1="-0.023133838549256325" x2="0.4996729791164398" y2="1.01078200340271" id="master_svg1__054996"><stop offset="0%" stop-color="#FDFEFF" stop-opacity="1"/><stop offset="99.6399998664856%" stop-color="#ECF0F5" stop-opacity="1"/></linearGradient><filter id="master_svg2_0_401612" filterUnits="objectBoundingBox" color-interpolation-filters="sRGB" x="-0.3658229914860303" y="-0.4740493943928942" width="1.7316459829720605" height="2.264131718381051"><feFlood flood-opacity="0" result="BackgroundImageFix"/><feColorMatrix in="SourceAlpha" type="matrix" values="0 0 0 0 0 0 0 0 0 0 0 0 0 0 0 0 0 0 127 0"/><feOffset dy="11" dx="0"/><feGaussianBlur stdDeviation="11"/><feColorMatrix type="matrix" values="0 0 0 0 0.3960784375667572 0 0 0 0 0.47843137383461 0 0 0 0 0.5764706134796143 0 0 0 0.27000001072883606 0"/><feBlend mode="normal" in2="BackgroundImageFix" result="effect1_dropShadow"/><feBlend mode="normal" in="SourceGraphic" in2="effect1_dropShadow" result="shape"/></filter><linearGradient x1="0.4996841251850128" y1="-0.02316455729305744" x2="0.4996841251850128" y2="1.0107594728469849" id="master_svg3__054548"><stop offset="0%" stop-color="#FDFEFF" stop-opacity="1"/><stop offset="99.6399998664856%" stop-color="#ECF0F5" stop-opacity="1"/></linearGradient></defs><path d="M91.95700664465332,120.283C125.10600464465332,120.283,151.98100764465332,93.408997,151.98100764465332,60.140999C151.98100764465332,26.874001,125.10600464465332,0,91.95700664465332,0C58.80800864465332,0,31.93400764465332,26.874001,31.93400764465332,60.140999C31.93400764465332,93.408997,58.80800864465332,120.283,91.95700664465332,120.283Z" fill="#EAEEF9" fill-opacity="1"/><path d="M47.798007958276365,28.295000076293945L133.15701085827635,28.295000076293945C136.59000985827635,28.295000076293945,139.19400585827637,30.899000176293946,139.19400585827637,34.33300017629394L139.19400585827637,88.43599907629394C139.19400585827637,91.87000107629395,136.59000985827635,94.47400107629394,133.15701085827635,94.47400107629394L47.798007958276365,94.47400107629394C44.365007858276364,94.47400107629394,41.76000785827637,91.87000107629395,41.76000785827637,88.43599907629394L41.76000785827637,34.33300017629394C41.76000785827637,30.899000176293946,44.602007858276366,28.295000076293945,47.798007958276365,28.295000076293945Z" fill="url(#master_svg0__054995)" fill-opacity="1"/><path d="M122.83100923266602,34.32800023651123L123.55701023266602,92.73900123651123C123.55701023266602,94.73400423651123,121.92400723266601,96.27600423651123,119.929008232666,96.27600423651123L62.969007232666016,96.27600423651123C60.97400723266602,96.27600423651123,59.341007232666016,94.64400023651123,59.341007232666016,92.73900123651123L59.341007232666016,17.639000136511232C59.341007232666016,15.64400033651123,60.97400723266602,14.10200023651123,62.969007232666016,14.10200023651123L104.23700723266602,14.10200023651123L122.83100923266602,34.32800023651123Z" fill="url(#master_svg1__054996)" fill-opacity="1"/><path d="M96.25600860595704,26.34700032043457L68.95500860595703,26.34700032043457C68.32000863595704,26.34700032043457,67.77600860595703,25.80300032043457,67.77600860595703,25.16800032043457C67.77600860595703,24.53300035043457,68.32000863595704,23.98900032043457,68.95500860595703,23.98900032043457L96.25600860595704,23.98900032043457C96.89100860595703,23.98900032043457,97.43500860595702,24.53300035043457,97.43500860595702,25.16800032043457C97.43500860595702,25.80300032043457,96.89100860595703,26.34700032043457,96.25600860595704,26.34700032043457Z" fill="#D5DDEA" fill-opacity="1"/><path d="M79.47600860595703,32.87699909973144L68.95500860595703,32.87699909973144C68.32000863595704,32.87699909973144,67.77600860595703,32.332999099731445,67.77600860595703,31.697999099731444C67.77600860595703,31.062999129731445,68.32000863595704,30.518999099731445,68.95500860595703,30.518999099731445L79.38600860595703,30.518999099731445C80.02100860595704,30.518999099731445,80.56500860595703,31.062999129731445,80.56500860595703,31.697999099731444C80.56500860595703,32.332999099731445,80.02100860595704,32.87699909973144,79.47600860595703,32.87699909973144Z" fill="#D5DDEA" fill-opacity="1"/><path d="M104.23700714111328,14.10200023651123L104.23700714111328,30.24700023651123C104.23700714111328,32.514001236511234,106.23300724111328,34.32800023651123,108.50000714111329,34.32800023651123L122.83100714111328,34.32800023651123" fill="#D5DDEA" fill-opacity="1"/><path d="M115.23100639233398,46.66899871826172L105.33400739233399,46.66899871826172L102.88000839233399,46.66899871826172L69.29600841233399,46.66899871826172C68.87300840233398,46.66899871826172,68.45000839233398,47.09299870826172,68.45000839233398,47.68699871826172C68.45000839233398,48.19499871826172,68.78900838233399,48.70399881826172,69.29600841233399,48.70399881826172L102.88000839233399,48.70399881826172L105.33400739233399,48.70399881826172L115.14700739233399,48.70399881826172C115.73900939233398,48.70399881826172,116.07700739233398,48.27999861826172,116.07700739233398,47.68699871826172C116.07700739233398,47.17799871826172,115.73900939233398,46.66899871826172,115.23100639233398,46.66899871826172Z" fill="#D5DDEA" fill-opacity="1"/><path d="M142.3520078430176,89.62000070898438L142.3520078430176,62.983001708984375L139.3520088430176,62.983001708984375L139.3520088430176,89.62000070898438Q139.3520088430176,91.60046770898438,137.97896184301757,92.99151970898438Q136.59364684301758,94.39500070898438,134.57700684301756,94.39500070898438L46.85100794301758,94.39500070898438Q44.89735894301758,94.39500070898438,43.48673534301758,92.98453170898438Q42.07600834301758,91.57395970898438,42.07600784301758,89.62000070898438L42.07600784301758,60.733001708984375L39.07600784301758,60.733001708984375L39.07600784301758,89.62000070898438Q39.07600844301758,92.81669570898438,41.36553108301758,95.10596870898438Q43.65481374301758,97.39500070898438,46.85100794301758,97.39500070898438L134.57700684301756,97.39500070898438Q137.84775884301757,97.39500070898438,140.11406284301756,95.09897970898437Q142.3520078430176,92.83168770898438,142.3520078430176,89.62000070898438Z" fill-rule="evenodd" fill="#1676EE" fill-opacity="1"/><path d="M133.3930114310303,48.066001892089844L105.69000843103026,48.066001892089844C102.96700843103028,48.066001892089844,100.36300843103027,49.01300192208984,98.35000843103028,50.670001992089844L91.12900743103027,56.59000209208985C89.11600643103027,58.24700189208984,86.51100743103027,59.194001892089844,83.78800743103028,59.194001892089844L52.53400753103028,59.194001892089844C49.337007531030274,59.194001892089844,46.73300743103027,61.79900189208985,46.73300743103027,64.99500289208984C46.73300743103027,65.23200189208984,46.73300743103027,65.58700189208984,46.851007431030276,65.82400089208984L52.65200753103027,96.36799989208984C53.126007531030275,99.21000289208985,55.493007631030274,101.34100389208984,58.45300743103027,101.34100389208984L125.34300843103027,101.34100389208984C128.18400343103028,101.34100389208984,130.67000343103027,99.32800289208984,131.14401043103027,96.48700289208983L139.1940064310303,54.69600199208985C139.78600843103027,51.499001992089845,137.65500443103028,48.65800190208984,134.45900543103028,48.066001892089844C133.98500643103029,48.066001892089844,133.63001043103026,48.066001892089844,133.3930114310303,48.066001892089844Z" fill="#FFFFFF" fill-opacity="1"/><path d="M145.82400762939454,39.89699987792969L109.83400762939453,39.89699987792969C106.28200562939453,39.89699987792969,102.96800962939453,41.080999877929685,100.24501062939453,43.32999987792969L90.77300662939453,51.02499987792969C88.16900662939453,53.15599987792969,84.73600762939452,54.458999877929685,81.18400562939453,54.458999877929685L40.45800782939453,54.458999877929685C36.31500772939453,54.458999877929685,33.00000762939453,57.89199987792969,33.00000762939453,61.91699987792968C33.00000762939453,62.27199887792969,33.00000762939453,62.62700087792969,33.11800762939453,62.982999877929686L40.57700772939453,102.88000087792969C41.16800782939453,106.66799887792969,44.36500762939453,109.39099887792969,48.03500762939453,109.39099887792969L135.1690076293945,109.39099887792969C138.95800762939453,109.39099887792969,142.03600762939453,106.7870028779297,142.62800762939452,102.99800087792968L153.16400762939452,48.42099947792968C153.87500762939453,44.27699997792969,151.15200762939452,40.60699987792969,147.0080076293945,39.77799987792969C146.65300762939455,39.89699987792969,146.17900762939453,39.89699987792969,145.82400762939454,39.89699987792969Z" fill="url(#master_svg3__054548)" fill-opacity="1" filter="url(#master_svg2_0_401612)"/><path d="M154.3080091383789,31.78899907602539Q154.3080091383789,31.99041937602539,154.2882661383789,32.19086937602539Q154.2685241383789,32.39131977602539,154.2292289383789,32.58886907602539Q154.1899337383789,32.786418876025394,154.1314649383789,32.97916607602539Q154.0729951383789,33.17191317602539,153.99591443837892,33.35800077602539Q153.9188346383789,33.54408927602539,153.8238859383789,33.72172547602539Q153.7289371383789,33.89936207602539,153.6170334383789,34.06683637602539Q153.5051307383789,34.23431107602539,153.3773512383789,34.39001127602539Q153.2495718383789,34.54571107602539,153.1071462383789,34.68813607602539Q152.9647212383789,34.83056167602539,152.80902143837892,34.95834107602539Q152.6533212383789,35.086120576025394,152.4858465383789,35.19802327602539Q152.31837173837891,35.30992697602539,152.1407356383789,35.40487527602539Q151.96309853837892,35.49982447602539,151.7770104383789,35.57690427602539Q151.5909233383789,35.65398497602539,151.3981762383789,35.71245387602539Q151.2054290383789,35.77092357602539,151.0078792383789,35.81021787602539Q150.8103299383789,35.84951397602539,150.6098799383789,35.86925597602539Q150.4094295383789,35.88899897602539,150.2080092383789,35.88899897602539Q150.0065894383789,35.88899897602539,149.80613903837892,35.86925597602539Q149.6056888383789,35.84951397602539,149.4081387383789,35.810218776025394Q149.2105891383789,35.77092357602539,149.0178423383789,35.71245477602539Q148.8250951383789,35.65398497602539,148.6390071383789,35.57690427602539Q148.4529192383789,35.49982447602539,148.2752826383789,35.40487577602539Q148.0976460383789,35.30992697602539,147.9301712383789,35.19802327602539Q147.7626966383789,35.086120576025394,147.6069967383789,34.95834107602539Q147.4512970383789,34.83056167602539,147.3088714383789,34.68813607602539Q147.1664459383789,34.54571107602539,147.0386664883789,34.39001127602539Q146.9108868883789,34.23431107602539,146.7989838683789,34.06683637602539Q146.6870809183789,33.89936157602539,146.5921321483789,33.72172547602539Q146.4971833483789,33.54408837602539,146.4201031883789,33.35800027602539Q146.3430230883789,33.17191317602539,146.2845539283789,32.97916607602539Q146.2260847683789,32.786418876025394,146.1867896693789,32.58886907602539Q146.1474945733789,32.39131977602539,146.1277519553789,32.190869776025394Q146.1080093383789,31.99041937602539,146.1080093383789,31.78899907602539Q146.1080093383789,31.58757927602539,146.1277519553789,31.38712887602539Q146.1474945733789,31.18667867602539,146.1867896693789,30.98912857602539Q146.2260847683789,30.79157897602539,146.2845539283789,30.59883217602539Q146.3430230883789,30.40608497602539,146.4201031883789,30.219996976025392Q146.4971833483789,30.03390907602539,146.59213208837892,29.856272476025392Q146.68708085837892,29.67863587602539,146.7989838083789,29.51116107602539Q146.9108868883789,29.34368647602539,147.03866642837892,29.18798657602539Q147.1664459383789,29.032286876025392,147.3088714383789,28.88986127602539Q147.4512970383789,28.74743577602539,147.6069967383789,28.619656326025392Q147.7626966383789,28.491876726025392,147.9301712383789,28.37997370602539Q148.0976460383789,28.26807075602539,148.2752826383789,28.17312198602539Q148.4529192383789,28.078173186025392,148.6390071383789,28.00109302602539Q148.8250951383789,27.92401292602539,149.01784203837892,27.86554376602539Q149.2105891383789,27.80707460602539,149.4081387383789,27.76777950702539Q149.6056888383789,27.72848441102539,149.80613903837892,27.70874179302539Q150.0065894383789,27.68899917602539,150.2080092383789,27.68899917602539Q150.4094295383789,27.68899917602539,150.60987953837892,27.70874179302539Q150.8103299383789,27.72848441102539,151.0078792383789,27.76777950702539Q151.2054290383789,27.80707460602539,151.3981762383789,27.86554376602539Q151.5909233383789,27.92401292602539,151.7770109383789,28.00109302602539Q151.96309943837892,28.078173186025392,152.1407356383789,28.17312192602539Q152.3183722383789,28.26807069602539,152.4858465383789,28.37997364602539Q152.6533212383789,28.491876726025392,152.80902143837892,28.61965626602539Q152.9647212383789,28.74743577602539,153.1071462383789,28.88986127602539Q153.2495718383789,29.032286876025392,153.3773512383789,29.18798657602539Q153.5051307383789,29.34368647602539,153.6170334383789,29.51116107602539Q153.7289371383789,29.67863587602539,153.8238854383789,29.856272476025392Q153.9188346383789,30.03390907602539,153.99591443837892,30.219996976025392Q154.0729951383789,30.40608497602539,154.1314640383789,30.59883187602539Q154.1899337383789,30.79157897602539,154.2292280383789,30.98912857602539Q154.2685241383789,31.18667867602539,154.2882661383789,31.38712887602539Q154.3080091383789,31.58757927602539,154.3080091383789,31.78899907602539Z" fill="#EAEEF9" fill-opacity="1"/><path d="M148.9080061866211,19.78900032043457Q148.9080061866211,19.92655562043457,148.8945231866211,20.06344842043457Q148.88104058662108,20.20034122043457,148.8542046866211,20.33525322043457Q148.8273696866211,20.47016552043457,148.7874393866211,20.60179762043457Q148.74750898662109,20.73342942043457,148.69486858662108,20.86051372043457Q148.6422290866211,20.98759842043457,148.5773858866211,21.10891152043457Q148.5125426866211,21.23022412043457,148.4361209866211,21.34459682043457Q148.3596992866211,21.45897002043457,148.2724351866211,21.565301420434572Q148.1851710866211,21.67163272043457,148.0879048866211,21.76889892043457Q147.99063868662108,21.86616512043457,147.8843073866211,21.953429220434572Q147.7779759866211,22.04069332043457,147.6636023866211,22.11711452043457Q147.5492295866211,22.193536720434572,147.42791698662109,22.25837992043457Q147.3066041866211,22.32322262043457,147.17951938662108,22.37586212043457Q147.05243538662108,22.42850302043457,146.9208032866211,22.46843292043457Q146.7891714866211,22.50836322043457,146.6542591866211,22.535198720434572Q146.5193471866211,22.56203462043457,146.3824545866211,22.57551762043457Q146.2455615866211,22.58900022043457,146.1080062866211,22.58900022043457Q145.9704513866211,22.58900022043457,145.83355858662108,22.57551722043457Q145.69666578662108,22.56203462043457,145.5617532866211,22.535198720434572Q145.42684128662108,22.50836372043457,145.2952091866211,22.46843342043457Q145.1635770866211,22.42850302043457,145.03649248662109,22.37586262043457Q144.90940808662108,22.32322312043457,144.78809538662108,22.25837992043457Q144.6667824866211,22.193536720434572,144.5524094866211,22.11711502043457Q144.4380366866211,22.04069332043457,144.3317049866211,21.953429220434572Q144.22537350662108,21.86616512043457,144.12810724662108,21.76889892043457Q144.0308411166211,21.67163272043457,143.94357698662108,21.565301420434572Q143.8563129266211,21.45897002043457,143.7798913466211,21.34459642043457Q143.7034698166211,21.230223620434572,143.63862672662108,21.10891102043457Q143.5737836666211,20.98759822043457,143.5211435666211,20.86051342043457Q143.4685034866211,20.73342942043457,143.4285733366211,20.60179732043457Q143.3886431756211,20.47016552043457,143.3618074956211,20.33525322043457Q143.3349718156211,20.20034122043457,143.3214890506211,20.06344862043457Q143.3080062866211,19.92655562043457,143.3080062866211,19.78900032043457Q143.3080062866211,19.65144542043457,143.3214890506211,19.51455262043457Q143.3349718156211,19.37765982043457,143.3618074956211,19.24274732043457Q143.3886431756211,19.10783532043457,143.4285733366211,18.97620322043457Q143.4685034866211,18.84457112043457,143.5211435666211,18.71748652043457Q143.5737836666211,18.59040212043457,143.63862672662108,18.46908942043457Q143.7034697866211,18.34777652043457,143.7798913166211,18.23340352043457Q143.8563129266211,18.11903072043457,143.94357698662108,18.01269902043457Q144.0308411166211,17.90636754043457,144.12810724662108,17.80910128043457Q144.22537350662108,17.71183515043457,144.3317050866211,17.62457102043457Q144.4380366866211,17.53730696043457,144.5524094866211,17.460885380434572Q144.66678258662108,17.38446385043457,144.78809538662108,17.31962076043457Q144.9094082866211,17.25477770043457,145.03649258662108,17.202137600434572Q145.1635770866211,17.149497520434572,145.2952091866211,17.10956737043457Q145.42684128662108,17.06963720943457,145.5617532866211,17.04280152943457Q145.69666578662108,17.015965849434572,145.83355858662108,17.00248308443457Q145.9704513866211,16.98900032043457,146.1080062866211,16.98900032043457Q146.2455615866211,16.98900032043457,146.3824543866211,17.00248308443457Q146.5193471866211,17.015965849434572,146.6542591866211,17.04280152943457Q146.7891714866211,17.06963720943457,146.9208035866211,17.10956737043457Q147.05243538662108,17.149497520434572,147.1795196866211,17.202137600434572Q147.3066043866211,17.25477770043457,147.42791748662108,17.31962076043457Q147.5492300866211,17.384463820434572,147.66360278662108,17.46088535043457Q147.7779759866211,17.53730696043457,147.8843073866211,17.62457102043457Q147.99063868662108,17.71183515043457,148.0879048866211,17.80910128043457Q148.1851710866211,17.90636754043457,148.2724351866211,18.01269912043457Q148.3596992866211,18.11903072043457,148.4361204866211,18.23340352043457Q148.5125426866211,18.34777662043457,148.5773858866211,18.46908942043457Q148.6422285866211,18.59040232043457,148.69486808662109,18.71748662043457Q148.74750898662109,18.84457112043457,148.7874388866211,18.97620322043457Q148.8273691866211,19.10783532043457,148.8542046866211,19.24274732043457Q148.88104058662108,19.37765982043457,148.8945235866211,19.51455262043457Q148.9080061866211,19.65144542043457,148.9080061866211,19.78900032043457Z" fill="#EAEEF9" fill-opacity="1"/><path d="M35.50800752176514,28.98899917602539Q35.50800752176514,29.12655447602539,35.494524521765136,29.263447276025392Q35.48104192176514,29.40034007602539,35.45420602176514,29.53525207602539Q35.42737102176514,29.67016437602539,35.38744072176514,29.80179647602539Q35.347510321765135,29.933428276025392,35.294869921765134,30.060512576025392Q35.242230421765136,30.18759727602539,35.17738722176514,30.30891037602539Q35.11254402176514,30.43022297602539,35.036122321765134,30.54459567602539Q34.95970062176514,30.65896887602539,34.87243652176514,30.765300276025393Q34.78517242176514,30.87163157602539,34.68790622176514,30.96889777602539Q34.59064002176514,31.06616397602539,34.48430872176514,31.153428076025392Q34.37797732176514,31.24069217602539,34.263603721765136,31.31711337602539Q34.14923092176514,31.393535576025393,34.027918321765135,31.45837877602539Q33.90660552176514,31.52322147602539,33.77952072176514,31.57586097602539Q33.652436721765135,31.62850187602539,33.52080462176514,31.66843177602539Q33.389172821765136,31.70836207602539,33.25426052176514,31.735197576025392Q33.11934852176514,31.76203347602539,32.98245592176514,31.77551647602539Q32.845562921765136,31.78899907602539,32.708007621765134,31.78899907602539Q32.570452721765136,31.78899907602539,32.43355992176514,31.77551607602539Q32.29666712176514,31.76203347602539,32.161754621765134,31.735197576025392Q32.026842621765134,31.70836257602539,31.895210521765136,31.668432276025392Q31.763578421765136,31.62850187602539,31.636493821765136,31.57586147602539Q31.509409421765138,31.52322197602539,31.388096721765137,31.45837877602539Q31.266783821765138,31.393535576025393,31.152410821765137,31.31711387602539Q31.038038021765136,31.24069217602539,30.931706321765137,31.153428076025392Q30.825374841765136,31.06616397602539,30.728108581765138,30.96889777602539Q30.630842451765137,30.87163157602539,30.543578321765136,30.765300276025393Q30.456314261765137,30.65896887602539,30.37989268176514,30.54459527602539Q30.303471151765137,30.430222476025392,30.238628061765137,30.30890987602539Q30.173785001765136,30.18759707602539,30.12114490176514,30.060512276025392Q30.06850482176514,29.933428276025392,30.028574671765135,29.80179617602539Q29.988644510765138,29.67016437602539,29.961808830765136,29.53525207602539Q29.93497315076514,29.40034007602539,29.921490385765136,29.26344747602539Q29.908007621765137,29.12655447602539,29.908007621765137,28.98899917602539Q29.908007621765137,28.85144427602539,29.921490385765136,28.71455147602539Q29.93497315076514,28.57765867602539,29.961808830765136,28.44274617602539Q29.988644510765138,28.30783417602539,30.028574671765135,28.17620207602539Q30.06850482176514,28.04456997602539,30.12114490176514,27.91748537602539Q30.173785001765136,27.790400976025392,30.238628061765137,27.66908827602539Q30.30347112176514,27.547775376025392,30.379892651765136,27.43340237602539Q30.456314261765137,27.31902957602539,30.543578321765136,27.21269787602539Q30.630842451765137,27.10636639602539,30.728108581765138,27.009100136025392Q30.825374841765136,26.91183400602539,30.931706421765135,26.82456987602539Q31.038038021765136,26.73730581602539,31.152410821765137,26.660884236025392Q31.266783921765136,26.58446270602539,31.388096721765137,26.51961961602539Q31.509409621765137,26.45477655602539,31.636493921765137,26.402136456025392Q31.763578421765136,26.349496376025392,31.895210521765136,26.30956622602539Q32.026842621765134,26.26963606502539,32.161754621765134,26.24280038502539Q32.29666712176514,26.215964705025392,32.43355992176514,26.20248194002539Q32.570452721765136,26.18899917602539,32.708007621765134,26.18899917602539Q32.845562921765136,26.18899917602539,32.982455721765135,26.20248194002539Q33.11934852176514,26.215964705025392,33.25426052176514,26.24280038502539Q33.389172821765136,26.26963606502539,33.520804921765134,26.30956622602539Q33.652436721765135,26.349496376025392,33.779521021765134,26.402136456025392Q33.90660572176514,26.45477655602539,34.027918821765134,26.51961961602539Q34.14923142176514,26.584462676025392,34.263604121765134,26.66088420602539Q34.37797732176514,26.73730581602539,34.48430872176514,26.82456987602539Q34.59064002176514,26.91183400602539,34.68790622176514,27.009100136025392Q34.78517242176514,27.10636639602539,34.87243652176514,27.21269797602539Q34.95970062176514,27.31902957602539,35.036121821765136,27.43340237602539Q35.11254402176514,27.54777547602539,35.17738722176514,27.66908827602539Q35.24222992176514,27.79040117602539,35.294869421765135,27.91748547602539Q35.347510321765135,28.04456997602539,35.38744022176514,28.17620207602539Q35.427370521765134,28.30783417602539,35.45420602176514,28.44274617602539Q35.48104192176514,28.57765867602539,35.494524921765134,28.71455147602539Q35.50800752176514,28.85144427602539,35.50800752176514,28.98899917602539Z" fill="#EAEEF9" fill-opacity="1"/><path d="M31.6080078125,88.18899821308594Q31.6080078125,88.31665091308594,31.6017448125,88.44415001308593Q31.5954808125,88.57164911308594,31.5829688125,88.69868711308594Q31.570456812499998,88.82572551308594,31.551725812500003,88.95199631308594Q31.5329948125,89.07826761308594,31.5080908125,89.20346741308593Q31.4831868125,89.32866761308594,31.4521698125,89.45249511308594Q31.4211518125,89.57632251308594,31.384096812499997,89.69847871308593Q31.347040812499998,89.82063441308594,31.3040358125,89.94082451308594Q31.2610298125,90.06101511308594,31.2121798125,90.17895131308593Q31.1633301125,90.29688741308594,31.1087513125,90.41228391308594Q31.0541735125,90.52768091308593,30.9939985125,90.64026071308594Q30.933822612500002,90.75284001308594,30.8681965125,90.86233141308594Q30.8025694125,90.97182271308594,30.731649412499998,91.07796291308594Q30.6607284125,91.18410201308593,30.5846863125,91.28663441308593Q30.5086441125,91.38916591308593,30.4276619125,91.48784351308593Q30.3466797125,91.58651921308594,30.260952912500002,91.68110461308594Q30.1752262125,91.77568821308594,30.084962812500002,91.86595341308593Q29.994697612499998,91.95621681308594,29.900114012499998,92.04194451308594Q29.805528612499998,92.12767031308594,29.7068519125,92.20865251308594Q29.608175312500002,92.28963471308595,29.5056429125,92.36567691308593Q29.4031114125,92.44171901308593,29.2969723125,92.51264001308594Q29.1908321125,92.58356001308594,29.0813408125,92.64918711308594Q28.9718494125,92.71481321308593,28.8592701125,92.77498911308594Q28.7466903125,92.83516411308594,28.6312933125,92.88974191308594Q28.5158968125,92.94432071308594,28.3979607125,92.99317041308593Q28.2800245125,93.04202041308594,28.159833912499998,93.08502641308594Q28.0396433125,93.12803241308593,27.9174876125,93.16508841308594Q27.7953315125,93.20214341308593,27.6715045125,93.23316041308594Q27.5476770125,93.26417741308593,27.4224768125,93.28908141308594Q27.2972770125,93.31398541308593,27.1710062125,93.33271641308593Q27.0447349125,93.35144841308593,26.9176969125,93.36396041308593Q26.7906589125,93.37647141308594,26.6631594125,93.38273441308594Q26.5356603125,93.38899841308594,26.4080076125,93.38899841308594Q26.2803545125,93.38899841308594,26.1528559125,93.38273441308594Q26.0253568125,93.37647041308594,25.8983188125,93.36395941308594Q25.7712803125,93.35144741308594,25.6450086125,93.33271641308593Q25.5187373125,93.31398541308593,25.3935375125,93.28908141308594Q25.2683372125,93.26417741308593,25.1445103125,93.23316041308594Q25.0206833125,93.20214241308594,24.898527412500002,93.16508741308594Q24.7763710125,93.12803141308594,24.6561801125,93.08502641308594Q24.5359893125,93.04202041308594,24.4180536125,92.99317041308593Q24.3001175125,92.94432071308594,24.1847207125,92.88974191308594Q24.0693240125,92.83516411308594,23.9567447125,92.77498911308594Q23.8441648125,92.71481321308593,23.7346730125,92.64918711308594Q23.6251817125,92.58356001308594,23.5190422125,92.51264001308594Q23.4129028125,92.44171901308593,23.3103711125,92.36567691308593Q23.2078395125,92.28963471308595,23.1091627125,92.20865251308594Q23.0104856125,92.12767031308594,22.9159012125,92.04194351308594Q22.8213166125,91.95621681308594,22.7310524125,91.86595341308593Q22.6407882125,91.77568821308594,22.5550618125,91.68110461308594Q22.4693354125,91.58651921308594,22.3883533125,91.48784251308594Q22.3073711125,91.38916591308593,22.2313285125,91.28663351308595Q22.1552857125,91.18410201308593,22.0843656625,91.07796291308594Q22.0134455525,90.97182271308594,21.9478189325,90.86233141308594Q21.8821922525,90.75284001308594,21.8220171325,90.64026071308594Q21.7618420125,90.52768091308593,21.7072634125,90.41228391308594Q21.6526848125,90.29688741308594,21.6038341825,90.17895131308593Q21.5549835825,90.06101511308594,21.5119786525,89.94082451308594Q21.4689736925,89.82063391308594,21.4319180425,89.69847821308593Q21.3948623825,89.57632211308594,21.3638452725,89.45249511308594Q21.3328281625,89.32866761308594,21.3079243375,89.20346741308593Q21.2830205115,89.07826761308594,21.2642899525,88.95199681308594Q21.2455593945,88.82572551308594,21.2330472325,88.69868751308594Q21.2205350665,88.57164951308593,21.2142714397,88.44415001308593Q21.2080078125,88.31665091308594,21.2080078125,88.18899821308594Q21.2080078125,88.06134511308593,21.2142714397,87.93384651308594Q21.2205350665,87.80634741308594,21.2330472325,87.67930941308593Q21.2455593945,87.55227091308593,21.2642899525,87.42599921308593Q21.2830205115,87.29972791308593,21.3079243375,87.17452811308594Q21.3328281625,87.04932781308594,21.3638452725,86.92550091308594Q21.3948623825,86.80167391308593,21.4319180525,86.67951801308594Q21.4689737225,86.55736161308593,21.5119786525,86.43717071308593Q21.5549835825,86.31697991308593,21.6038341825,86.19904421308594Q21.6526848125,86.08110811308593,21.7072634425,85.96571131308593Q21.7618420725,85.85031461308594,21.8220171925,85.73773531308593Q21.8821923125,85.62515541308593,21.9478189925,85.51566361308593Q22.0134456125,85.40617231308593,22.0843657225,85.30003281308593Q22.1552858325,85.19389341308593,22.2313286125,85.09136171308593Q22.3073712125,84.98883011308594,22.3883533125,84.89015331308593Q22.4693354125,84.79147621308594,22.5550618125,84.69689181308594Q22.6407882125,84.60230721308594,22.7310524125,84.51204301308594Q22.8213166125,84.42177881308594,22.9159011125,84.33605241308594Q23.0104856125,84.25032601308594,23.1091626125,84.16934391308594Q23.2078395125,84.08836171308593,23.3103711125,84.01231911308594Q23.4129028125,83.93627631308594,23.5190422125,83.86535626308594Q23.6251817125,83.79443615308594,23.7346732125,83.72880953308594Q23.8441648125,83.66318285308594,23.9567447125,83.60300773308593Q24.0693240125,83.54283261308593,24.1847207125,83.48825401308594Q24.3001175125,83.43367541308594,24.4180536125,83.38482478308593Q24.5359893125,83.33597418308594,24.6561801125,83.29296925308594Q24.7763710125,83.24996429308594,24.8985271125,83.21290864308594Q25.0206833125,83.17585298308593,25.1445103125,83.14483587308594Q25.2683372125,83.11381876308593,25.3935375125,83.08891493808594Q25.5187373125,83.06401111208594,25.6450086125,83.04528055308593Q25.7712798125,83.02654999508594,25.8983183125,83.01403783308594Q26.0253563125,83.00152566708594,26.1528554125,82.99526204028594Q26.2803545125,82.98899841308594,26.4080076125,82.98899841308594Q26.5356603125,82.98899841308594,26.6631594125,82.99526204028594Q26.790658512500002,83.00152566708594,26.9176965125,83.01403783308594Q27.0447349125,83.02654999508594,27.1710057125,83.04528055308593Q27.2972770125,83.06401111208594,27.4224768125,83.08891493808594Q27.5476770125,83.11381876308593,27.6715045125,83.14483587308594Q27.7953319125,83.17585298308593,27.9174881125,83.21290865308593Q28.0396438125,83.24996432308593,28.159833912499998,83.29296925308594Q28.2800245125,83.33597418308594,28.3979607125,83.38482478308593Q28.5158968125,83.43367541308594,28.6312933125,83.48825404308593Q28.7466903125,83.54283267308594,28.8592701125,83.60300779308594Q28.9718494125,83.66318291308593,29.0813408125,83.72880959308594Q29.1908321125,83.79443621308593,29.2969723125,83.86535632308593Q29.4031114125,83.93627643308594,29.5056438125,84.01231921308593Q29.608175312500002,84.08836181308594,29.7068529125,84.16934391308594Q29.805528612499998,84.25032601308594,29.900114012499998,84.33605241308594Q29.994697612499998,84.42177881308594,30.084962812500002,84.51204301308594Q30.1752262125,84.60230721308594,30.2609539125,84.69689171308593Q30.3466797125,84.79147621308594,30.4276619125,84.89015321308594Q30.5086441125,84.98883011308594,30.5846863125,85.09136171308593Q30.6607284125,85.19389341308593,30.731649412499998,85.30003281308593Q30.8025694125,85.40617231308593,30.8681965125,85.51566381308594Q30.933822612500002,85.62515541308593,30.9939985125,85.73773531308593Q31.0541735125,85.85031461308594,31.1087513125,85.96571131308593Q31.1633301125,86.08110811308593,31.2121798125,86.19904421308594Q31.2610298125,86.31697991308593,31.3040358125,86.43717071308593Q31.347041812500002,86.55736161308593,31.384097812500002,86.67951771308594Q31.4211528125,86.80167391308593,31.4521698125,86.92550091308594Q31.4831868125,87.04932781308594,31.5080908125,87.17452811308594Q31.5329948125,87.29972791308593,31.551725812500003,87.42599921308593Q31.570457812500003,87.55227041308594,31.5829698125,87.67930891308593Q31.595481812499997,87.80634691308593,31.6017448125,87.93384601308594Q31.6080078125,88.06134511308593,31.6080078125,88.18899821308594Z" fill="#EAEEF9" fill-opacity="1"/><g><path d="M127.23100639233398,99.84000048120117L144.625007392334,117.19900148120117C146.31600939233397,118.88699748120118,149.02100739233398,118.88699748120118,150.71200939233398,117.19900148120117C152.40301139233398,115.51199748120118,152.40301139233398,112.81100048120118,150.71200939233398,111.12400048120116L133.22200739233398,93.66799948120118C145.832008392334,75.29599948120116,132.54600939233399,50.99399948120117,110.90100839233398,50.99399948120117C95.92300839233398,50.99399948120117,83.70000839233398,63.14499948120117,83.70000839233398,78.14099848120117C83.70000839233398,100.17799748120117,108.87200939233398,113.34199948120117,127.23100639233398,99.84000048120117ZM92.29998399233398,78.18998148120117C92.29998399233398,67.96697948120118,100.65798339233399,59.62498088120117,110.90098339233398,59.62498088120117C127.56898539233399,59.62498088120117,136.12098339233398,80.02198048120117,123.31798139233399,91.97998048120118C112.01198339233399,102.54098148120117,92.29998399233398,94.63298048120117,92.29998399233398,78.18998148120117Z" fill-rule="evenodd" fill="#989FB0" fill-opacity="1"/></g><g><path d="M108.92000528798827,81.03499914550781C108.92000528798827,81.46899914550781,108.96800518798828,81.85399914550781,109.01700498798829,82.23999914550781L109.01700498798829,82.33699914550782L112.30200478798828,82.33699914550782L112.30200478798828,82.14399914550782C112.30200478798828,80.93799914550782,112.83400538798828,79.97399914550782,113.89600558798828,79.25099914550782L115.10400518798828,78.38299914550781C116.84400518798829,77.12899874550781,118.05200518798829,75.4889993455078,118.05200518798829,73.12699934550781C118.05200518798829,70.08899904550782,115.63600518798827,67.19599914550781,110.99800538798829,67.19599914550781C106.60100508798828,67.19599914550781,104.18500518798828,70.28199914550781,104.18500518798828,73.51199914550782C104.18500518798828,73.94599914550781,104.23300518798828,74.42899894550781,104.33000518798828,74.86299894550781L108.09900518798828,75.00699904550781C108.05000518798828,74.71799894550782,108.00200508798828,74.37999914550781,108.00200508798828,74.04299924550781C108.00200508798828,72.35499904550781,108.92000528798827,70.66699914550782,111.04600528798828,70.66699914550782C113.07500548798828,70.66699914550782,114.04100508798828,71.9689989455078,114.04100508798828,73.31999924550782C114.04100508798828,74.23599914550782,113.65500548798828,75.00699904550781,112.73700518798827,75.68199924550781L111.28700538798829,76.74299904550782C109.59600498798828,77.99699914550781,108.92000528798827,79.44299914550781,108.92000528798827,81.03499914550781ZM113.07503508798828,86.53202014550781C113.07503508798828,85.23002214550782,112.01203438798828,84.16902114550781,110.70803448798829,84.16902114550781C109.40303418798828,84.16902114550781,108.34003448798828,85.23002214550782,108.34003448798828,86.53202014550781C108.34003448798828,87.83402214550782,109.40303418798828,88.89402214550782,110.70803448798829,88.89402214550782C112.01203438798828,88.89402214550782,113.07503508798828,87.83402214550782,113.07503508798828,86.53202014550781Z" fill-rule="evenodd" fill="#989FB0" fill-opacity="1"/></g></svg>