<svg xmlns="http://www.w3.org/2000/svg" xmlns:xlink="http://www.w3.org/1999/xlink" fill="none" version="1.1" width="150.95538330078125" height="144.276123046875" viewBox="0 0 150.95538330078125 144.276123046875"><defs><filter id="master_svg0_0_400541" filterUnits="objectBoundingBox" color-interpolation-filters="sRGB" x="-0.5179187761415861" y="-0.4215850316697361" width="2.035837552283172" height="2.1242267511192963"><feFlood flood-opacity="0" result="BackgroundImageFix"/><feColorMatrix in="SourceAlpha" type="matrix" values="0 0 0 0 0 0 0 0 0 0 0 0 0 0 0 0 0 0 127 0"/><feOffset dy="11" dx="0"/><feGaussianBlur stdDeviation="11"/><feColorMatrix type="matrix" values="0 0 0 0 0.3960784375667572 0 0 0 0 0.47843137383461 0 0 0 0 0.5764706134796143 0 0 0 0.27000001072883606 0"/><feBlend mode="normal" in2="BackgroundImageFix" result="effect1_dropShadow"/><feBlend mode="normal" in="SourceGraphic" in2="effect1_dropShadow" result="shape"/></filter><linearGradient x1="0.4996841251850128" y1="-0.02316455729305744" x2="0.4996841251850128" y2="1.0107594728469849" id="master_svg1__054548"><stop offset="0%" stop-color="#FDFEFF" stop-opacity="1"/><stop offset="99.6399998664856%" stop-color="#ECF0F5" stop-opacity="1"/></linearGradient></defs><path d="M126.13448562622071,61.00009656088257C126.13448562622071,75.20009756088257,120.3344836262207,88.00010056088257,111.0344886262207,97.20009756088257C101.9344826262207,106.30009556088257,89.3344836262207,111.80009756088256,75.4344866262207,111.80009756088256C61.634487626220704,111.80009756088256,49.0344846262207,106.20009756088257,39.834485626220705,97.20009756088257C30.534485826220703,88.00010056088257,24.734485626220703,75.20009756088257,24.734485626220703,61.00009656088257C24.734485626220703,32.90009856088257,47.4344866262207,10.200097560882568,75.4344866262207,10.200097560882568C103.4344826262207,10.200097560882568,126.13448562622071,33.00009656088257,126.13448562622071,61.00009656088257Z" fill="#EAEEF9" fill-opacity="1"/><path d="M121.73448323740234,27.700097074780274C123.99948313740234,27.700097074780274,125.83448313740234,25.860097374780274,125.83448313740234,23.600097174780274C125.83448313740234,21.33009727478027,123.99948313740234,19.500097274780273,121.73448323740234,19.500097274780273C119.47048333740234,19.500097274780273,117.63448333740234,21.33009727478027,117.63448333740234,23.600097174780274C117.63448333740234,25.860097374780274,119.47048333740234,27.700097074780274,121.73448323740234,27.700097074780274Z" fill="#EAEEF9" fill-opacity="1"/><path d="M127.73448638916015,11.70009755625C129.28148648916016,11.70009755625,130.53448628916016,10.44009785625,130.53448628916016,8.90009765625C130.53448628916016,7.35009765625,129.28148648916016,6.10009765625,127.73448638916015,6.10009765625C126.18848628916015,6.10009765625,124.93448638916016,7.35009765625,124.93448638916016,8.90009765625C124.93448638916016,10.44009785625,126.18848628916015,11.70009755625,127.73448638916015,11.70009755625Z" fill="#EAEEF9" fill-opacity="1"/><path d="M26.33448486328125,27.600097174780274C27.88148496328125,27.600097174780274,29.13448476328125,26.340097474780272,29.13448476328125,24.800097274780274C29.13448476328125,23.250097274780273,27.88148496328125,22.000097274780273,26.33448486328125,22.000097274780273C24.78848476328125,22.000097274780273,23.53448486328125,23.250097274780273,23.53448486328125,24.800097274780274C23.53448486328125,26.340097474780272,24.78848476328125,27.600097174780274,26.33448486328125,27.600097174780274Z" fill="#EAEEF9" fill-opacity="1"/><path d="M9.23448466328125,81.6000961303711C12.10648436328125,81.6000961303711,14.43448486328125,79.27009583037109,14.43448486328125,76.4000959303711C14.43448486328125,73.52009603037109,12.10648436328125,71.2000961303711,9.23448466328125,71.2000961303711C6.362484963281251,71.2000961303711,4.03448486328125,73.52009603037109,4.03448486328125,76.4000959303711C4.03448486328125,79.27009583037109,6.362484963281251,81.6000961303711,9.23448466328125,81.6000961303711Z" fill="#EAEEF9" fill-opacity="1"/><path d="M116.2834838338623,37.390097274780274C114.9154868338623,35.48009727478028,112.8634858338623,35.65009727478027,112.1364878338623,37.98009727478028C110.51248783386231,43.170097274780275,105.4244828338623,45.09009727478028,102.3044868338623,45.55009627478027C100.5084818338623,32.240097274780275,89.0514848338623,22.000097274780273,75.1994838338623,22.000097274780273C61.39148483386231,22.000097274780273,49.976483833862304,32.200097274780276,48.13848483386231,45.43009727478027C44.9744858338623,44.83009727478027,40.3574848338623,42.870098274780275,38.818484733862306,37.94009727478027C38.091485033862305,35.600097274780275,36.039484933862305,35.48009727478028,34.6714849338623,37.350097274780275C31.892484933862306,41.170097274780275,33.0474849268623,46.06009627478028,34.7574849338623,50.06009627478028C37.279484733862304,56.14009627478028,42.15348533386231,60.48009727478027,47.8814848338623,63.41009727478027C47.7534848338623,70.60009527478027,47.240484833862304,76.47009827478027,45.23148583386231,84.04009827478026C44.547485833862304,86.63009427478028,43.94848583386231,88.76009927478027,43.3934848338623,90.16010127478027C43.008484833862305,91.14009627478028,42.75148483386231,92.12010027478027,43.3504848338623,93.10009527478027C44.37648483386231,94.75009727478027,46.38548483386231,95.26009927478027,48.2234848338623,95.56009527478027C49.93348483386231,95.86009827478027,51.3874858338623,95.99009527478027,52.58448383386231,96.03009627478028C55.491485833862306,96.12010027478027,56.7744848338623,95.69009927478028,56.7744848338623,95.69009927478028C56.7744848338623,95.69009927478028,56.987483833862306,96.03009627478028,57.543485833862306,96.50009727478027C59.1254848338623,97.90009927478027,63.52848483386231,100.62010027478027,73.4474848338623,100.24009527478027C85.80248483386231,99.77009427478028,90.5474838338623,98.58009927478027,92.7274838338623,96.71009627478027C92.89848483386231,96.54009827478028,93.0694868338623,96.41010127478027,93.1984848338623,96.24009527478027C94.5664848338623,96.24009527478027,95.8054868338623,96.29009827478028,96.91748583386232,96.29009827478028C100.8074858338623,96.33009927478027,103.5864848338623,96.41010127478027,105.8094848338623,95.60009527478027C107.5624828338623,94.97009827478027,108.67348283386231,92.93009727478028,107.5624828338623,90.76009927478027C104.22748383386231,84.21009627478028,102.5174848338623,76.98009727478026,102.5174848338623,69.62009627478028L102.5174848338623,63.67009527478027C108.46048583386231,60.74009927478027,113.59048283386231,56.36009827478027,116.19848483386231,50.06009627478028C117.9084838338623,46.06009627478028,119.0624828338623,41.170097274780275,116.2834838338623,37.390097274780274Z" fill="url(#master_svg1__054548)" fill-opacity="1" filter="url(#master_svg0_0_400541)"/><path d="M96.95948313222657,96.20009757177735C95.80548283222656,96.20009757177735,94.56548313222656,96.16009857177734,93.24048303222656,96.16009857177734C93.11248303222656,96.33009957177734,92.94148303222656,96.50009957177734,92.77048303222657,96.63009857177734C91.53048303222656,91.14009857177734,90.46148303222657,85.53009847177735,90.20448303222656,78.64009857177734C91.95748303222656,84.55009837177734,94.18048313222656,91.52009857177734,96.95948313222657,96.20009757177735Z" fill="#DFE0E2" fill-opacity="1"/><path d="M57.543484649658204,96.46009826660156C56.987484449658204,95.99009926660156,56.7734847496582,95.65009926660156,56.7734847496582,95.65009926660156C56.7734847496582,95.65009926660156,55.491484649658204,96.12009826660156,52.5834846496582,95.99009926660156C55.0204846496582,91.52009826660156,57.201484649658205,83.15009836660157,56.9444847496582,77.96009826660156C57.3294844496582,87.10009856660156,57.45748474965821,92.84009826660156,57.543484649658204,96.46009826660156Z" fill="#DFE0E2" fill-opacity="1"/><path d="M65.06748385620118,52.950098471777345C67.09748365620118,52.950098471777345,68.74348405620117,51.32009837177734,68.74348405620117,49.30009867177734C68.74348405620117,47.280098571777344,67.09748365620118,45.640098571777344,65.06748385620118,45.640098571777344C63.03648385620117,45.640098571777344,61.39048385620117,47.280098571777344,61.39048385620117,49.30009867177734C61.39048385620117,51.32009837177734,63.03648385620117,52.950098471777345,65.06748385620118,52.950098471777345Z" fill="#9CA4B5" fill-opacity="1"/><path d="M83.4504871046875,54.870098724365235C86.5434875046875,54.870098724365235,89.0504873046875,52.37009902436523,89.0504873046875,49.30009892436524C89.0504873046875,46.220098724365236,86.5434875046875,43.730098724365234,83.4504871046875,43.730098724365234C80.3574872046875,43.730098724365234,77.8494873046875,46.220098724365236,77.8494873046875,49.30009892436524C77.8494873046875,52.37009902436523,80.3574872046875,54.870098724365235,83.4504871046875,54.870098724365235Z" fill="#9CA4B5" fill-opacity="1"/><path d="M84.90348602294922,60.01009750366211C84.90348602294922,61.420097503662106,80.03048502294922,62.56009750366211,74.04448602294921,62.56009750366211C68.01748612294922,62.56009750366211,63.14348602294922,61.420097503662106,63.14348602294922,60.01009750366211L84.90348602294922,60.01009750366211Z" fill="#9CA4B5" fill-opacity="1"/><path d="M76.56748299326172,72.26009719848633C73.78848309326172,72.26009719848633,71.56548309326172,70.01009749848633,71.56548309326172,67.28009699848633L71.56548309326172,61.33009719848633L81.61148309326171,61.33009719848633L81.61148309326171,67.28009699848633C81.61148309326171,70.01009749848633,79.34648319326172,72.26009719848633,76.56748299326172,72.26009719848633Z" fill="#9CA4B5" fill-opacity="1"/><path d="M75.1994835510254,111.51009796142579C91.2784845510254,111.51009796142579,104.31248455102539,109.00009826142578,104.31248455102539,105.90009786142578C104.31248455102539,102.80009796142578,91.2784845510254,100.28009796142578,75.1994835510254,100.28009796142578C59.12048355102539,100.28009796142578,46.08548355102539,102.80009796142578,46.08548355102539,105.90009786142578C46.08548355102539,109.00009826142578,59.12048355102539,111.51009796142579,75.1994835510254,111.51009796142579Z" fill="#A0A9BA" fill-opacity="1" style="opacity:0.20000000298023224;"/></svg>