<svg xmlns="http://www.w3.org/2000/svg" xmlns:xlink="http://www.w3.org/1999/xlink" fill="none" version="1.1" width="145.6845245361328" height="140.18743896484375" viewBox="0 0 145.6845245361328 140.18743896484375"><defs><linearGradient x1="0.5000077486038208" y1="0.07352100312709808" x2="0.5000077486038208" y2="0.4515310227870941" id="master_svg0__055062"><stop offset="0%" stop-color="#B0BACC" stop-opacity="1"/><stop offset="100%" stop-color="#969EAE" stop-opacity="1"/></linearGradient><filter id="master_svg1_0_401719" filterUnits="objectBoundingBox" color-interpolation-filters="sRGB" x="-0.5521775863217906" y="-0.7164723801131182" width="2.104355172643581" height="2.910593013634982"><feFlood flood-opacity="0" result="BackgroundImageFix"/><feColorMatrix in="SourceAlpha" type="matrix" values="0 0 0 0 0 0 0 0 0 0 0 0 0 0 0 0 0 0 127 0"/><feOffset dy="11" dx="0"/><feGaussianBlur stdDeviation="11"/><feColorMatrix type="matrix" values="0 0 0 0 0.3960784375667572 0 0 0 0 0.47843137383461 0 0 0 0 0.5764706134796143 0 0 0 0.27000001072883606 0"/><feBlend mode="normal" in2="BackgroundImageFix" result="effect1_dropShadow"/><feBlend mode="normal" in="SourceGraphic" in2="effect1_dropShadow" result="shape"/></filter><linearGradient x1="0.4996841251850128" y1="-0.02316455729305744" x2="0.4996841251850128" y2="1.0107594728469849" id="master_svg2__054548"><stop offset="0%" stop-color="#FDFEFF" stop-opacity="1"/><stop offset="99.6399998664856%" stop-color="#ECF0F5" stop-opacity="1"/></linearGradient></defs><path d="M72.27799580273438,101.95944166400146C98.08200080273437,101.95944166400146,119.05300180273437,80.98844766400147,119.05300180273437,55.185442664001464C119.05300180273437,29.382445664001466,98.08200080273437,8.411444664001465,72.27799580273438,8.411444664001465C46.378997802734375,8.411444664001465,25.503997802734375,29.286444664001465,25.503997802734375,55.185442664001464C25.503997802734375,80.98844766400147,46.378997802734375,101.95944166400146,72.27799580273438,101.95944166400146Z" fill="#EAEEF9" fill-opacity="1"/><path d="M42.846997297558595,42.399444580078125L99.38799649755859,42.399444580078125C101.50499749755859,42.399444580078125,103.41099549755859,44.19944458007812,103.41099549755859,46.42344478007813L103.41099549755859,82.10544558007813C103.41099549755859,84.22244658007813,101.6109964975586,86.12844458007812,99.38799649755859,86.12844458007812L42.846997297558595,86.12844458007812C40.72999749755859,86.12844458007812,38.823997497558594,84.32844558007812,38.823997497558594,82.10544558007813L38.823997497558594,46.42344478007813C38.823997497558594,44.19944458007812,40.72999749755859,42.399444580078125,42.846997297558595,42.399444580078125Z" fill="url(#master_svg0__055062)" fill-opacity="1"/><path d="M126.6869954665039,43.49244546181641C128.1369952665039,42.139445261816405,128.2339954665039,39.91644546181641,126.8809952665039,38.466445461816406C125.5279950665039,37.017445501816404,123.30499526650391,36.92044550181641,121.8549952665039,38.2734454918164C120.40599530650391,39.6264455618164,120.3089953065039,41.84944536181641,121.6619952965039,43.29844566181641C122.9179951665039,44.65144536181641,125.23799516650391,44.845445661816406,126.6869954665039,43.49244546181641Z" fill="#EAEEF9" fill-opacity="1"/><path d="M126.87999913554688,27.546443691918945C127.45999903554687,26.966443791918945,127.55699923554687,26.000443791918947,126.97699903554687,25.420443771918947C126.39699913554688,24.840443759918944,125.43099913554687,24.743443761918947,124.85099911554687,25.323443771918946C124.27099910354687,25.903443751918946,124.17399910554687,26.869443791918947,124.75399911554688,27.449443791918945C125.33399909554687,28.126443891918946,126.30099913554687,28.126443891918946,126.87999913554688,27.546443691918945Z" fill="#EAEEF9" fill-opacity="1"/><path d="M88.90099398955078,5.609444661700439C89.28699398955078,5.22244466170044,89.38399388955078,4.5464446517004395,88.99699398955079,4.159444631700439C88.61099398955078,3.7724446397004394,87.93399399955078,3.6764446317004396,87.54799395955078,4.06244464170044C87.16099396755078,4.449444651700439,87.06499395955078,5.125444661700439,87.45099396955078,5.51244466170044C87.83799397955079,5.89844466170044,88.51399398955078,5.99544456170044,88.90099398955078,5.609444661700439Z" fill="#EAEEF9" fill-opacity="1"/><path d="M123.95199994677733,23.552444L109.86999894677734,48.646446C109.33999994677734,49.493446,108.28199994677735,49.811443,107.53999894677735,49.281445L83.39999961677735,35.199444C82.55199961377734,34.670444,82.23499962677734,33.611446,82.76399960677735,32.870445L101.29299894677735,0.89444458C101.82299994677734,0.047444556,102.88199994677734,-0.27055544,103.62299894677734,0.25844455L121.09299894677734,10.423445L123.95199994677733,23.552444Z" fill="#F2F6FA" fill-opacity="1"/><path d="M121.09299755986328,10.423444747924805L117.06999736986329,17.199444747924804C116.53999736986329,18.258444747924806,116.85799737286328,19.317444847924804,117.81099736986329,19.952445047924805L123.84599735986328,23.446444747924804" fill="#D5DAE6" fill-opacity="1"/><g><path d="M105.63499878857422,16.882444381713867C105.31699898857421,16.882444381713867,104.89299868857422,16.882444381713867,104.46999878857422,16.98844438171387L104.36399888857422,18.470444481713866C104.36399888857422,18.682444381713868,104.57599878857422,18.999444481713866,104.78799918857422,19.105444381713866C104.89299868857422,19.211444381713868,105.10499858857422,19.211444381713868,105.21099848857422,19.211444381713868L105.95199868857422,19.211444381713868C106.26999898857422,19.211444381713868,106.58799888857422,19.211444381713868,106.90499878857422,19.31744428171387C107.32899858857422,19.423444281713866,107.75199888857422,19.635444381713867,108.06999878857422,19.846444381713866C108.38799858857422,20.058444481713867,108.59899898857422,20.270444381713865,108.81099878857422,20.482444281713867C109.02299878857421,20.69344448171387,109.12899878857422,20.905444181713868,109.23499878857422,21.223444481713866C109.33999778857422,21.435444381713868,109.33999778857422,21.64644428171387,109.33999778857422,21.964444181713866C109.23499878857422,22.282444481713867,109.12899878857422,22.599444381713866,109.02299878857421,22.811444281713868C108.81099878857422,23.235444581713868,108.59899898857422,23.552444481713867,108.17599868857423,23.764444381713865C107.75199888857422,23.976444281713867,107.43499948857422,24.082444181713868,107.01099868857422,24.187444181713868C106.58799888857422,24.293444181713866,106.16399858857422,24.399444581713865,105.74099878857422,24.399444581713865C105.31699898857421,24.505444481713866,104.99899868857422,24.505444481713866,104.57599878857422,24.611444481713868C104.25799898857422,24.717444381713868,103.94099898857422,24.823444381713866,103.62299868857421,25.035444281713865C103.41099878857422,25.246444681713868,103.09299898857422,25.564444581713865,102.98799898857422,25.882444381713867L102.14099888857422,27.78744438171387L104.04599858857422,28.846444381713866L105.21099848857422,27.364444381713867C105.42299888857421,27.152444381713867,105.63499878857422,27.04644438171387,105.95199868857422,26.940444381713867C106.37599898857422,26.83444408171387,106.69299888857422,26.72944448171387,107.01099868857422,26.72944448171387L108.17599868857423,26.62344458171387C108.59899898857422,26.62344458171387,109.02299878857421,26.517444581713868,109.44599878857422,26.305444681713865C109.97599878857422,26.093444781713867,110.29299878857422,25.882444381713867,110.71699878857422,25.564444581713865C111.13999878857422,25.140444781713867,111.45799878857422,24.717444381713868,111.77599878857421,24.187444181713868C112.09299878857422,23.658444381713867,112.30499878857422,23.023444181713867,112.41099978857422,22.387444481713867C112.41099978857422,21.858444181713867,112.41099978857422,21.223444481713866,112.19899878857422,20.69344448171387C111.98799878857422,20.058444481713867,111.66999878857422,19.529444481713867,111.24599878857421,19.105444381713866C110.82299878857422,18.576444381713866,110.29299878857422,18.152444381713867,109.65799878857422,17.835444391713867C109.23499878857422,17.623444381713867,108.81099878857422,17.41144436171387,108.28199858857423,17.199444381713867C107.85799888857422,17.093444381713866,107.32899858857422,16.98844438171387,106.90499878857422,16.882444381713867L105.63499878857422,16.882444381713867ZM99.59899580857422,30.32945338171387C99.38799577857422,30.540453381713867,99.17599579857422,30.752452381713866,99.06999578857422,30.96445238171387C98.96399578857422,31.17645338171387,98.85799578557422,31.38745338171387,98.85799578557422,31.599453381713865C98.75199578857422,31.811452381713867,98.75199578857422,32.129453381713866,98.85799578557422,32.34045338171387C98.85799578557422,32.55245338171387,99.06999578857422,32.764453381713864,99.17599579857422,32.97645338171387C99.38799577857422,33.18745238171387,99.59899580857422,33.399454381713866,99.81099578857422,33.50545338171386C100.23499588857422,33.71745338171387,100.76399578857422,33.823454381713866,101.29399588857422,33.71745338171387C102.35199568857422,33.399454381713866,102.98799558857422,32.446453381713866,102.66999578857421,31.38745338171387C102.56399578857422,31.17645338171387,102.45799588857422,30.96445238171387,102.35199568857422,30.752452381713866C102.14099578857422,30.540453381713867,101.92899588857422,30.32945338171387,101.71699568857422,30.223453381713867C101.29399588857422,29.90545338171387,100.76399578857422,29.90545338171387,100.23499588857422,30.011453381713867C100.02299578857422,30.011453381713867,99.81099578857422,30.223453381713867,99.59899580857422,30.32945338171387Z" fill-rule="evenodd" fill="#CED6E2" fill-opacity="1"/></g><path d="M33.42399755273438,12.647444071796874L49.51799755273438,29.482445091796876C50.046997552734375,30.117445091796874,50.046997552734375,30.964443091796873,49.411998552734374,31.493444091796874L32.999998552734375,47.05844509179688C32.36499755273438,47.587444091796876,31.517997552734375,47.587444091796876,30.987997552734374,46.95244609179687L10.446997762734375,25.246444091796874C9.917997762734375,24.611444091796876,9.917997762734375,23.764444091796875,10.552997772734376,23.235444091796875L22.517997552734375,12.011444091796875L33.42399755273438,12.647444071796874Z" fill="#F2F6FA" fill-opacity="1"/><path d="M22.41199779510498,11.799444198608398L26.85899779510498,16.4584440986084C27.49399759510498,17.093444298608397,28.55299759510498,17.093444298608397,29.18899779510498,16.4584440986084L33.31799779510498,12.541444178608398" fill="#D5DAE6" fill-opacity="1"/><g><path d="M23.893997703552245,25.35244418498535C23.788997703552248,25.67044398498535,23.682997703552246,25.98844388498535,23.682997703552246,26.30544378498535L24.846997703552248,26.51744408498535C25.058997703552247,26.62344408498535,25.376997703552245,26.62344408498535,25.482997703552247,26.411444184985353C25.588997703552245,26.30544378498535,25.693997603552248,26.199443784985352,25.693997603552248,26.09344388498535C25.693997603552248,25.98844388498535,25.693997603552248,25.776443984985352,25.799997803552245,25.56444408498535C25.905997703552245,25.246443784985352,26.011997703552247,25.035443984985353,26.117997603552247,24.823443884985352C26.329997803552246,24.61144398498535,26.540997703552247,24.29444408498535,26.752997603552245,24.082443984985353C26.964997803552247,23.87044408498535,27.176997703552246,23.76444388498535,27.387997603552247,23.658443884985353C27.599997803552245,23.552443984985352,27.811997903552246,23.44644398498535,28.023997803552245,23.44644398498535C28.235997703552247,23.44644398498535,28.446997603552248,23.44644398498535,28.658997503552246,23.552443984985352C28.870997903552247,23.658443884985353,29.082997803552246,23.76444388498535,29.187997803552246,23.97644398498535C29.399997703552245,24.29444408498535,29.611997603552247,24.61144398498535,29.717997503552247,24.929444084985352C29.823997503552246,25.246443784985352,29.823997503552246,25.56444408498535,29.823997503552246,25.882443884985353C29.823997503552246,26.199443784985352,29.823997503552246,26.51744408498535,29.717997503552247,26.835443984985353C29.717997503552247,27.152443884985352,29.611997603552247,27.47044418498535,29.611997603552247,27.78844408498535C29.611997603552247,28.10544398498535,29.611997603552247,28.31744388498535,29.717997503552247,28.635444184985353C29.823997503552246,28.952444084985352,30.035997903552246,29.16444398498535,30.246997803552247,29.37644388498535L31.517997703552247,30.541443784985354L32.787997203552244,29.37644388498535L31.940998103552246,28.10544398498535C31.729997603552246,27.89344408498535,31.729997603552246,27.682444084985352,31.729997603552246,27.47044418498535C31.729997603552246,27.152443884985352,31.834998103552245,26.94144388498535,31.834998103552245,26.62344408498535C31.940998103552246,26.30544378498535,31.940998103552246,25.98844388498535,32.04699800355225,25.67044398498535L32.04699800355225,24.61144398498535C31.940998103552246,24.18844388498535,31.834998103552245,23.76444388498535,31.729997603552246,23.44644398498535C31.623997703552245,23.023443984985352,31.305997803552245,22.599443984985353,30.987997503552247,22.282443984985353C30.564997703552244,21.96444398498535,30.140997903552247,21.64644399498535,29.717997503552247,21.43544398498535C29.293997803552244,21.329443984985353,28.764997503552244,21.22344398498535,28.340997703552247,21.22344398498535C27.917997803552247,21.22344398498535,27.387997603552247,21.329443984985353,26.964997803552247,21.541443974985352C26.435997703552246,21.752443964985353,26.011997703552247,22.070443984985353,25.587997703552247,22.494443984985352C25.270997803552245,22.81144408498535,24.952997703552246,23.12944398498535,24.740997703552246,23.44644398498535C24.529997703552247,23.76444388498535,24.317997693552247,24.082443984985353,24.211997683552248,24.39944408498535C24.105997713552245,24.71744398498535,23.999997703552246,25.035443984985353,23.893997703552245,25.35244418498535ZM33.10599900355224,33.188471984985355C33.21199890355224,33.39947098498535,33.317998903552244,33.61147198498535,33.423998803552244,33.71747198498535C33.529998803552246,33.929471984985355,33.74099970355225,34.03547198498535,34.05899870355225,34.14047198498535C34.376998703552246,34.24647098498535,34.799999703552245,34.24647098498535,35.22399870355225,34.14047198498535C35.434998703552246,34.14047198498535,35.64699970355225,33.929471984985355,35.75299970355225,33.82347198498535C35.96499870355225,33.61147198498535,36.07099870355225,33.50547198498535,36.17699870355224,33.29347198498535C36.17699870355224,33.082471984985354,36.28199870355225,32.87047198498535,36.28199870355225,32.658471984985354C36.28199870355225,32.44647198498535,36.28199870355225,32.23547198498535,36.17699870355224,32.02347198498535C35.96499870355225,31.38847198498535,35.32999870355225,30.96447178498535,34.693999703552244,30.96447178498535C34.48299870355225,30.96447178498535,34.270998703552245,30.96447178498535,34.05899870355225,31.07047178498535C33.846998703552245,31.17647168498535,33.63499930355225,31.28247198498535,33.529998803552246,31.38847198498535C33.21199890355224,31.70547198498535,32.99999900355225,32.12947198498535,32.99999900355225,32.55247198498535C32.99999900355225,32.76447198498535,32.99999900355225,32.97647198498535,33.10599900355224,33.188471984985355Z" fill-rule="evenodd" fill="#CED6E2" fill-opacity="1"/></g><path d="M75.45899999414063,39.117445406860355L69.21199999414063,61.45844440686035C68.99999999414062,62.19944540686035,68.15299999414063,62.72844540686035,67.41199899414062,62.41144340686035L45.70599909414062,56.05844540686035C44.96499908414062,55.846445406860354,44.43499907414063,54.99944540686035,44.75299907514062,54.25844340686035L53.22299859414063,25.45844470686035C53.43499949414063,24.71744477686035,54.281998594140624,24.18844477686035,55.02299899414062,24.50544477286035L70.79999899414062,29.164444906860354L75.45899999414063,39.117445406860355Z" fill="#F2F6FA" fill-opacity="1"/><path d="M70.80199958447265,29.203445434570312L68.78799964847266,35.517445534570314C68.57599964447266,36.36444523457031,69.10599964447266,37.31744573457031,69.95299958447265,37.52944563457031L75.53699968447266,39.10744573457031" fill="#D5DAE6" fill-opacity="1"/><g><path d="M59.78799914033203,37.42344485473633C59.47099904033203,37.529444844736325,59.15299914033203,37.63544484473633,58.83499904033203,37.74044483473633L59.36499904033203,38.90544485473633C59.36499904033203,39.11744485473633,59.57599904033203,39.32944485473633,59.78799914033203,39.32944485473633C59.93581054033203,39.40335055473633,60.03209324033203,39.374198654736325,60.11277414033203,39.34977035473633C60.14781044033203,39.33916215473633,60.179904740332034,39.32944485473633,60.21199894033203,39.32944485473633C60.317999140332034,39.32944485473633,60.52899904033203,39.22344495473633,60.74099924033203,39.22344495473633C60.95299914033203,39.11744485473633,61.26999904033203,39.11744485473633,61.48199944033203,39.11744485473633C61.90599914033203,39.11744485473633,62.22299914033203,39.11744485473633,62.54099944033203,39.22344495473633C62.85899924033203,39.32944485473633,63.06999924033203,39.43544485473633,63.28199914033203,39.54044485473633C63.49399904033203,39.75244475473633,63.70599894033203,39.85844495473633,63.81199934033203,40.07044485473633C63.91799924033203,40.28244495473633,64.02299924033203,40.493444954736326,64.02299924033203,40.70544485473633L64.02299924033203,41.23444465473633C63.91799924033203,41.65844485473633,63.70599894033203,41.97644475473633,63.49399904033203,42.187444654736325C63.17599914033203,42.399445054736326,62.964999240332034,42.61144495473633,62.64699934033203,42.71744485473633C62.32899904033203,42.92944475473633,62.01199914033203,43.03444485473633,61.69399934033203,43.14044475473633C61.48199944033203,43.24644465473633,61.164999040332034,43.35244465473633,60.84699914033203,43.45844505473633C60.52899904033203,43.564445054736325,60.317999140332034,43.77644495473633,60.10599904033203,43.987444854736324C59.89399914033203,44.19944475473633,59.68199924033203,44.41144465473633,59.68199924033203,44.72944495473633L59.36499904033203,46.42344475473633L61.05899904033203,47.164444954736325L61.69399934033203,45.787445054736324C61.69399934033203,45.57644465473633,61.90599914033203,45.364444754736326,62.11799904033203,45.25844475473633C62.32899904033203,45.15244485473633,62.64699934033203,45.04644485473633,62.85899924033203,44.94044495473633L63.81199934033203,44.62344505473633C64.12899924033204,44.51744505473633,64.44699904033203,44.30544475473633,64.76499894033203,44.093444854736326C65.08199934033203,43.88244485473633,65.39999964033203,43.564445054736325,65.61199954033204,43.24644465473633C65.92899894033204,42.82344485473633,66.14099884033203,42.399445054736326,66.24699974033203,41.97644475473633C66.35299874033203,41.55244495473633,66.45899964033202,41.023444854736326,66.35299874033203,40.493444954736326C66.24699974033203,40.07044485473633,66.03499894033203,39.64644475473633,65.82299904033204,39.22344495473633C65.50599864033202,38.79944495473633,65.18799974033203,38.48244485473633,64.76499894033203,38.164444864736325C64.34099914033203,37.846444844736325,63.81199934033203,37.529444844736325,63.28199914033203,37.42344485473633C62.85899924033203,37.31744485473633,62.43499894033203,37.21144485473633,62.01199914033203,37.21144485473633L60.84699914033203,37.21144485473633C60.42299914033203,37.21144485473633,60.10599904033203,37.31744485473633,59.78799914033203,37.42344485473633ZM57.56499883033203,49.387463854736325C57.352998840332035,49.493463854736326,57.352998840332035,49.70546485473633,57.24699884033203,49.917463854736326C57.24699884033203,50.12946385473633,57.24699884033203,50.34046385473633,57.14099884033203,50.44646385473633C57.24699884033203,50.65846485473633,57.24699884033203,50.76446485473633,57.352998840332035,50.97646385473633C57.45899883033203,51.08146385473633,57.56499883033203,51.29346385473633,57.77599883033203,51.399463854736325C57.88199884033203,51.61146385473633,58.09399885033203,51.61146385473633,58.30599884033203,51.71746485473633C58.62299884033203,51.82346385473633,59.04699884033203,51.82346385473633,59.47099874033203,51.61146385473633C60.21199894033203,51.29346385473633,60.52899884033203,50.34046385473633,60.10599874033203,49.599464854736325C59.99999884033203,49.493463854736326,59.78799894033203,49.28146385473633,59.681998740332034,49.176463854736326C59.57599874033203,49.07046385473633,59.364998840332035,48.96446385473633,59.15299894033203,48.85846385473633C58.834998840332034,48.75246385473633,58.41199884033203,48.75246385473633,57.98799884033203,48.96446385473633C57.88199884033203,49.07046385473633,57.67099881033203,49.176463854736326,57.56499883033203,49.387463854736325Z" fill-rule="evenodd" fill="#CED6E2" fill-opacity="1"/></g><path d="M126.49299953515626,77.34044460229492L105.95200053515624,88.45744360229492C105.31700053515625,88.77544360229493,104.36400053515625,88.56344260229491,104.04600053515625,87.82244460229492L93.77600054515625,67.81144360229493C93.45800054515625,67.17544360229492,93.67000054615625,66.22244360229492,94.41100054515626,65.90544460229492L121.09300053515625,51.82244383229492C121.72900053515625,51.50544382229492,122.68200153515625,51.71744382729492,122.99900053515626,52.458443822294925L130.41099953515624,66.96344360229492L126.49299953515626,77.34044460229492Z" fill="#F2F6FA" fill-opacity="1"/><path d="M130.30499645371094,67.17544555664062L124.58699631371094,70.14044545664062C123.84599629371094,70.56444545664063,123.52899629371093,71.62244555664063,123.84599629371094,72.36444565664063L126.38699625371093,77.44644555664063" fill="#D5DAE6" fill-opacity="1"/><g><path d="M116.96400381738282,64.84644719458984C116.64600381738282,64.74044719458985,116.43500281738281,64.52844720458984,116.11700381738281,64.42244720458984L115.58700381738281,65.69344720458984C115.48200381738282,65.79944720458984,115.48200381738282,66.11744730458985,115.58700381738281,66.22244720458984C115.69300381738282,66.43444730458984,115.79900381738281,66.43444730458984,115.9050038173828,66.54044720458984C116.01100381738281,66.64644720458985,116.22300381738282,66.75244710458985,116.32900381738281,66.85844730458984C116.54000381738281,66.96444730458984,116.75200381738281,67.17544720458984,116.85800381738281,67.28144720458984C117.07000381738281,67.59944720458985,117.28200381738282,67.81144710458985,117.38700281738281,68.12844730458984C117.59900281738281,68.44644740458985,117.59900281738281,68.65844730458984,117.70500381738282,68.86944720458985C117.70500381738282,68.98473550458985,117.71893581738281,69.08609100458985,117.73164781738281,69.17856600458984C117.75399781738281,69.34116460458985,117.77257481738282,69.47630600458984,117.70500381738282,69.61144730458984C117.70500381738282,70.14044710458984,117.28200381738282,70.45844700458984,116.96400381738282,70.66944740458985C116.54000381738281,70.88144730458984,116.22300381738282,70.98744730458985,115.9050038173828,70.98744730458985C115.48200381738282,70.88144730458984,115.27000331738282,70.88144730458984,114.9520035173828,70.77544740458984C114.52900311738281,70.66944740458985,114.31700321738282,70.45844700458984,113.99900341738281,70.35244700458985C113.78700351738281,70.24644710458985,113.57600401738281,70.03444720458984,113.25800321738281,69.92844720458984C112.94000341738281,69.82244730458984,112.72900341738281,69.82244730458984,112.41100361738282,69.82244730458984C112.09300331738281,69.82244730458984,111.77600381738281,69.82244730458984,111.56400351738282,70.03444720458984L110.18800351738281,70.98744730458985L110.92900371738281,72.57544710458984L112.30500361738281,72.04644730458985C112.41100361738282,71.83444740458984,112.72900341738281,71.83444740458984,112.94000341738281,71.94044730458984C113.1520033173828,72.04644730458985,113.47000361738282,72.15244720458985,113.68200301738281,72.25844720458984L114.52900311738281,72.68144700458984C114.84600351738281,72.89344690458984,115.27000331738282,72.89344690458984,115.58700381738281,72.99944690458985C115.9050038173828,73.10544680458985,116.43500281738281,73.10544680458985,116.75200381738281,72.99944690458985C117.1760038173828,72.89344690458984,117.70500381738282,72.78744700458984,118.02300381738281,72.57544710458984C118.44600381738282,72.36444710458984,118.87000381738281,72.04644730458985,119.18700281738282,71.62244700458984C119.3990038173828,71.19944720458984,119.61100381738281,70.77544740458984,119.71700381738282,70.35244700458985C119.71700381738282,70.17162890458984,119.72934181738282,70.00326540458984,119.74138881738281,69.83885760458985C119.76465481738282,69.52136660458984,119.78684081738281,69.21862940458985,119.71700381738282,68.86944720458985C119.71700381738282,68.44644740458985,119.61100381738281,67.81144710458985,119.29300281738281,67.38744710458984C119.08200381738281,66.96444730458984,118.87000381738281,66.64644720458985,118.55200381738281,66.32844720458985C118.34000381738281,66.01144720458984,118.12900381738281,65.79944720458984,117.81100381738281,65.48144720458984C117.49300381738281,65.16444718458985,117.28200381738282,64.95244717458985,116.96400381738282,64.84644719458984ZM106.35899847738281,71.68163730458984C106.33099388738282,71.69677020458984,106.30167996738281,71.71261070458985,106.26999890738281,71.72845120458985C106.16399889738281,71.94045160458984,105.84599894738281,71.94045160458984,105.74099892738282,72.04645160458985C105.74099892738282,72.25845150458984,105.63499893738282,72.36445140458984,105.52899893038281,72.57545090458984C105.52899893038281,72.60521320458984,105.5206423363828,72.64333250458985,105.51096817138281,72.68746180458984C105.48618736958281,72.80050090458984,105.45276130038282,72.95297620458985,105.52899893038281,73.10545160458985C105.52899893038281,73.31645110458985,105.52899893038281,73.52845100458984,105.63499893738282,73.74045180458984C105.74099892738282,74.05845160458985,106.05799895738281,74.37545110458984,106.48199891738281,74.48145120458985L107.0109989173828,74.48145120458985C107.22299901738282,74.48145120458985,107.43499891738281,74.48145120458985,107.64599891738281,74.37545110458984C107.96399901738282,74.26945110458985,108.28199891738281,73.84645080458985,108.38799881738281,73.52845100458984L108.38799881738281,72.99945160458984C108.38799881738281,72.78745170458984,108.38799881738281,72.57545090458984,108.28199891738281,72.36445140458984C108.17599891738281,72.04645160458985,107.8579988173828,71.72845120458985,107.43499891738281,71.62245130458984C107.40523661738281,71.62245130458984,107.36711771738281,71.61409470458985,107.32298861738282,71.60442070458984C107.20994971738281,71.57963990458984,107.05747421738282,71.54621360458984,106.90499891738281,71.62245130458984C106.63537121738281,71.53229190458984,106.51839211738282,71.59550480458984,106.35899847738281,71.68163730458984Z" fill-rule="evenodd" fill="#CED6E2" fill-opacity="1"/></g><path d="M105.96999927575683,82.9514450612793L105.96999927575683,65.3754440612793L102.96999927575683,65.3754440612793L102.96999927575683,82.9514450612793Q102.96999927575683,85.5814440612793,100.34099727575683,85.5814440612793L42.211998475756836,85.5814440612793Q41.16555477575684,85.5814440612793,40.374334075756835,84.7899610612793Q39.582998275756836,83.99836306127929,39.582998275756836,82.9514450612793L39.582998275756836,63.8934440612793L36.582998275756836,63.8934440612793L36.582998275756836,82.9514450612793Q36.582998075756834,85.2407110612793,38.25266241575684,86.91092906127929Q39.922623875756834,88.5814440612793,42.211998475756836,88.5814440612793L100.34099727575683,88.5814440612793Q102.62972027575684,88.5814440612793,104.29987127575684,86.9110160612793Q105.96999927575683,85.2406100612793,105.96999927575683,82.9514450612793Z" fill-rule="evenodd" fill="#1676EE" fill-opacity="1"/><path d="M102.2459986196289,54.046443939208984L82.3409956196289,54.046443939208984C80.43499761962892,54.046443939208984,78.5289996196289,54.68144392920898,77.04699661962891,55.95244393920898L71.7529986196289,60.18744373920899C70.26999861962891,61.352444139208984,68.3639986196289,62.09344383920899,66.4589976196289,62.09344383920899L43.799997819628906,62.09344383920899C41.576997619628905,62.09344383920899,39.670997619628906,63.89344403920899,39.670997619628906,66.22244393920899C39.670997619628906,66.43444393920899,39.670997619628906,66.64644393920898,39.77699761962891,66.85844393920898L43.90599771962891,88.56344193920899C44.2239976196289,90.57544293920898,46.0239978196289,92.16344493920899,48.03499791962891,92.16344493920899L96.4229966196289,92.16344493920899C98.54099661962891,92.16344493920899,100.2349966196289,90.68144193920898,100.5519986196289,88.66944493920899L106.3759996196289,58.811443839208984C106.6930006196289,56.58744383920899,105.21099861962891,54.46944394920899,102.88199661962891,54.152443939208986C102.6699986196289,54.046443939208984,102.45799661962891,54.046443939208984,102.2459986196289,54.046443939208984Z" fill="#FFFFFF" fill-opacity="1"/><path d="M107.75199709265137,50.12844467163086L84.03499809265136,50.12844467163086C81.81099909265137,50.12844467163086,79.48199609265137,50.97644466163086,77.78799609265137,52.35244467163086L71.43499909265137,57.54044487163086C69.63499609265136,59.02344517163086,67.41199709265138,59.76444437163086,65.18799809265137,59.76444437163086L37.976998292651366,59.76444437163086C35.329997992651364,59.76444437163086,32.99999809265137,61.88144467163086,32.99999809265137,64.74044467163085C32.99999809265137,64.95244467163086,32.99999809265137,65.26944467163086,33.10599809265137,65.48144467163085L38.08299829265137,91.84644367163085C38.50599809265137,94.28144467163085,40.51799819265137,96.18744267163086,43.058998092651365,96.18744267163086L100.76399809265136,96.18744267163086C103.19899509265137,96.18744267163086,105.31699909265137,94.38744367163086,105.74099509265136,91.95244567163087L112.62299909265137,55.84644457163086C113.04599609265136,53.19944477163086,111.24600009265137,50.55244466163086,108.49400109265137,50.12844467163086C108.28199609265137,50.12844467163086,107.96399509265137,50.12844467163086,107.75199709265137,50.12844467163086Z" fill="url(#master_svg2__054548)" fill-opacity="1" filter="url(#master_svg1_0_401719)"/><path d="M62.01199750600586,77.86944486835938C63.38799740600586,77.86944486835938,64.55299760600586,76.70544506835938,64.55299760600586,75.32844496835938C64.55299760600586,73.95244506835938,63.38799740600586,72.78744506835938,62.01199750600586,72.78744506835938C60.63499740600586,72.78744506835938,59.46999740600586,73.95244506835938,59.46999740600586,75.32844496835938C59.46999740600586,76.70544506835938,60.63499740600586,77.86944486835938,62.01199750600586,77.86944486835938Z" fill="#989FB0" fill-opacity="1"/><path d="M81.81099654306641,77.44644071796876C83.18799664306641,77.44644071796876,84.3529968430664,76.28144101796875,84.3529968430664,74.90544081796875C84.3529968430664,73.52844091796875,83.18799664306641,72.36444091796875,81.81099654306641,72.36444091796875C80.43499664306641,72.36444091796875,79.2699966430664,73.52844091796875,79.2699966430664,74.90544081796875C79.2699966430664,76.28144101796875,80.43499664306641,77.44644071796876,81.81099654306641,77.44644071796876Z" fill="#989FB0" fill-opacity="1"/><path d="M77.25799783325195,81.6814444L75.88199803325196,81.6814444C74.71699813325195,79.3524444,71.85899783325195,78.39944446,69.63499783325196,79.6694444C68.68199773325195,80.0934446,67.94099783325196,80.9404445,67.62299783325196,81.6814444L66.24699783325195,81.6814444C67.41199783325196,78.61044449,70.90599773325195,77.02244449,73.86999793325195,78.18744448C75.45899773325195,78.8224444,76.62299783325196,80.0934446,77.25799783325195,81.6814444Z" fill="#989FB0" fill-opacity="1"/><g><path d="M116.98807719238282,104.74841308251953C117.11033819238281,104.76525108251954,117.23516819238282,104.76344708251953,117.38699719238281,104.76344708251953C119.29299519238282,104.76344708251953,120.13999519238281,102.54044708251953,118.76399819238281,101.26944708251953L110.39899619238281,92.90444708251954C116.43399819238282,84.11644708251953,110.08199719238281,72.57544708251953,99.81099719238281,72.57544708251953C92.71699719238282,72.57544708251953,86.89399719238281,78.39944698251954,86.89399719238281,85.49344708251954C86.89399719238281,96.08144808251953,98.9639971923828,102.32844708251953,107.64599819238282,95.86944808251954C115.4720571923828,103.69550508251953,116.17302519238281,104.63616908251953,116.98807719238282,104.74841308251953ZM91.0229949923828,85.59945208251953C91.0229949923828,80.62245178251953,95.04599479238281,76.70545198251953,99.91699519238281,76.70545198251953C104.78699519238282,76.70545198251953,108.81099519238282,80.62245178251953,108.70499419238281,85.70545208251953C108.70499419238281,86.12845208251953,108.59899519238282,86.44645208251953,108.59899519238282,86.86945108251953C108.59899519238282,87.39945208251953,108.49299419238281,87.92845108251953,108.28199619238282,88.45745208251952C108.06999619238282,88.98745108251953,107.85799419238282,89.51645308251953,107.64599419238282,89.94045208251953C107.43499519238281,90.36345308251953,107.11699519238282,90.78745308251953,106.79899619238282,91.21045308251954C106.48199419238281,91.52845208251954,106.0579951923828,91.95245208251953,105.73999419238281,92.26945108251954C105.31699419238281,92.69345108251953,104.89299419238282,93.01045208251954,104.36399419238282,93.32845108251954C103.93999519238281,93.54045108251952,103.51699419238281,93.75145108251954,102.98799519238281,93.96345108251953C102.5639951923828,94.17545108251953,102.03499519238281,94.28145208251954,101.50499519238281,94.38745108251953C100.97599519238281,94.49345208251952,100.44599519238281,94.49345208251952,99.91699519238281,94.49345208251952C94.94099519238281,94.49345208251952,91.0229949923828,90.57545108251954,91.0229949923828,85.59945208251953Z" fill-rule="evenodd" fill="#989FB0" fill-opacity="1"/></g><path d="M61.83682298964844,68.57819974177734L56.119822739648434,71.64819982177734L55.41017603964844,70.32668472177734L61.12717578964844,67.25668490177735L61.83682298964844,68.57819974177734Z" fill-rule="evenodd" fill="#989FB0" fill-opacity="1"/><path d="M86.42373849482422,70.16104693457031L80.70573827482421,66.98404711457032L81.43426111482422,65.67284375457031L87.15226079482422,68.84984373457031L86.42373849482422,70.16104693457031Z" fill-rule="evenodd" fill="#989FB0" fill-opacity="1"/></svg>