<svg xmlns="http://www.w3.org/2000/svg" xmlns:xlink="http://www.w3.org/1999/xlink" fill="none" version="1.1" width="141.3330078125" height="157.84173583984375" viewBox="0 0 141.3330078125 157.84173583984375"><defs><filter id="master_svg0_0_401461" filterUnits="objectBoundingBox" color-interpolation-filters="sRGB" x="-0.6214338097987354" y="-0.3642384167305046" width="2.242867619597471" height="1.971302444614679"><feFlood flood-opacity="0" result="BackgroundImageFix"/><feColorMatrix in="SourceAlpha" type="matrix" values="0 0 0 0 0 0 0 0 0 0 0 0 0 0 0 0 0 0 127 0"/><feOffset dy="11" dx="0"/><feGaussianBlur stdDeviation="11"/><feColorMatrix type="matrix" values="0 0 0 0 0.3960784375667572 0 0 0 0 0.47843137383461 0 0 0 0 0.5764706134796143 0 0 0 0.27000001072883606 0"/><feBlend mode="normal" in2="BackgroundImageFix" result="effect1_dropShadow"/><feBlend mode="normal" in="SourceGraphic" in2="effect1_dropShadow" result="shape"/></filter><linearGradient x1="0.4996841251850128" y1="-0.02316455729305744" x2="0.4996841251850128" y2="1.0107594728469849" id="master_svg1__054548"><stop offset="0%" stop-color="#FDFEFF" stop-opacity="1"/><stop offset="99.6399998664856%" stop-color="#ECF0F5" stop-opacity="1"/></linearGradient></defs><path d="M122.10300076293946,68.83076071875C122.10300076293946,83.03076171875,116.30299776293946,95.83076471875,107.00300176293945,105.03076171875C97.90300376293945,114.13075971875,85.30299776293946,119.63076171875,71.40000176293945,119.63076171875C57.600002762939454,119.63076171875,44.99999976293945,114.03076171875,35.800000762939455,105.03076171875C26.500000962939453,95.83076471875,20.700000762939453,83.03076171875,20.700000762939453,68.83076071875C20.700000762939453,40.73076271875,43.40000176293945,18.03076171875,71.40000176293945,18.03076171875C99.40300376293945,18.03076171875,122.10300076293946,40.83076071875,122.10300076293946,68.83076071875Z" fill="#EAEEF9" fill-opacity="1"/><path d="M117.70299672617188,35.529761305126954C119.96299692617187,35.529761305126954,121.80299662617188,33.69476130512695,121.80299662617188,31.429761405126953C121.80299662617188,29.16576150512695,119.96299692617187,27.329761505126953,117.70299672617188,27.329761505126953C115.43299682617187,27.329761505126953,113.60299682617188,29.16576150512695,113.60299682617188,31.429761405126953C113.60299682617188,33.69476130512695,115.43299682617187,35.529761305126954,117.70299672617188,35.529761305126954Z" fill="#EAEEF9" fill-opacity="1"/><path d="M123.70299987792968,19.52976178659668C125.2430000779297,19.52976178659668,126.50299977792969,18.27676198659668,126.50299977792969,16.72976188659668C126.50299977792969,15.18376178659668,125.2430000779297,13.92976188659668,123.70299987792968,13.92976188659668C122.15299987792969,13.92976188659668,120.90299987792969,15.18376178659668,120.90299987792969,16.72976188659668C120.90299987792969,18.27676198659668,122.15299987792969,19.52976178659668,123.70299987792968,19.52976178659668Z" fill="#EAEEF9" fill-opacity="1"/><path d="M25.0999999,32.62976150512695Q25.0999999,32.76731680512695,25.0865169,32.90420960512695Q25.0730343,33.041102405126956,25.0461984,33.176014405126956Q25.0193634,33.31092670512695,24.9794331,33.44255880512695Q24.9395027,33.57419060512695,24.8868623,33.70127490512695Q24.8342228,33.828359605126956,24.7693796,33.94967270512695Q24.704536400000002,34.07098530512695,24.6281147,34.18535800512695Q24.551693,34.29973120512695,24.4644289,34.406062605126955Q24.3771648,34.512393905126956,24.2798986,34.609660105126956Q24.1826324,34.706926305126956,24.076301100000002,34.794190405126955Q23.9699697,34.88145450512695,23.8555961,34.95787570512695Q23.7412233,35.034297905126955,23.6199107,35.099141105126954Q23.4985979,35.16398380512695,23.3715131,35.21662330512695Q23.2444291,35.26926420512695,23.112797,35.309194105126956Q22.9811652,35.34912440512695,22.8462529,35.375959905126955Q22.7113409,35.40279580512696,22.5744483,35.41627880512695Q22.4375553,35.42976140512695,22.3,35.42976140512695Q22.1624451,35.42976140512695,22.0255523,35.41627840512695Q21.8886595,35.40279580512696,21.753747,35.375959905126955Q21.618835,35.349124905126956,21.4872029,35.309194605126955Q21.3555708,35.26926420512695,21.2284862,35.21662380512695Q21.1014018,35.16398430512695,20.9800891,35.099141105126954Q20.8587762,35.034297905126955,20.7444032,34.95787620512695Q20.6300304,34.88145450512695,20.5236987,34.794190405126955Q20.41736722,34.706926305126956,20.32010096,34.609660105126956Q20.22283483,34.512393905126956,20.1355707,34.406062605126955Q20.04830664,34.29973120512695,19.97188506,34.18535760512695Q19.89546353,34.070984805126955,19.83062044,33.94967220512695Q19.76577738,33.82835940512695,19.71313728,33.701274605126954Q19.660497200000002,33.57419060512695,19.62056705,33.442558505126954Q19.580636889,33.31092670512695,19.553801209,33.176014405126956Q19.526965529,33.041102405126956,19.513482764,32.90420980512695Q19.5,32.76731680512695,19.5,32.62976150512695Q19.5,32.49220660512695,19.513482764,32.355313805126954Q19.526965529,32.218421005126956,19.553801209,32.08350850512695Q19.580636889,31.948596505126954,19.62056705,31.816964405126953Q19.660497200000002,31.685332305126952,19.71313728,31.558247705126952Q19.76577738,31.431163305126955,19.83062044,31.309850605126954Q19.8954635,31.188537705126954,19.97188503,31.074164705126954Q20.04830664,30.959791905126952,20.1355707,30.853460205126954Q20.22283483,30.747128725126952,20.32010096,30.649862465126954Q20.41736722,30.552596335126953,20.5236988,30.465332205126952Q20.6300304,30.378068145126953,20.7444032,30.301646565126955Q20.8587763,30.225225035126954,20.9800891,30.160381945126954Q21.101402,30.095538885126953,21.2284863,30.042898785126955Q21.3555708,29.990258705126955,21.4872029,29.95032855512695Q21.618835,29.910398394126954,21.753747,29.883562714126953Q21.8886595,29.856727034126955,22.0255523,29.843244269126952Q22.1624451,29.829761505126953,22.3,29.829761505126953Q22.4375553,29.829761505126953,22.5744481,29.843244269126952Q22.7113409,29.856727034126955,22.8462529,29.883562714126953Q22.9811652,29.910398394126954,23.1127973,29.95032855512695Q23.2444291,29.990258705126955,23.3715134,30.042898785126955Q23.4985981,30.095538885126953,23.6199112,30.160381945126954Q23.7412238,30.225225005126955,23.8555965,30.301646535126952Q23.9699697,30.378068145126953,24.076301100000002,30.465332205126952Q24.1826324,30.552596335126953,24.2798986,30.649862465126954Q24.3771648,30.747128725126952,24.4644289,30.85346030512695Q24.551693,30.959791905126952,24.6281142,31.074164705126954Q24.704536400000002,31.188537805126952,24.7693796,31.309850605126954Q24.8342223,31.431163505126953,24.8868618,31.558247805126953Q24.9395027,31.685332305126952,24.9794326,31.816964405126953Q25.0193629,31.948596505126954,25.0461984,32.08350850512695Q25.0730343,32.218421005126956,25.0865173,32.355313805126954Q25.0999999,32.49220660512695,25.0999999,32.62976150512695Z" fill="#EAEEF9" fill-opacity="1"/><path d="M10.4,84.23076151875Q10.4,84.35841421875,10.393737,84.48591331875Q10.387473,84.61341241875,10.374961,84.74045041875Q10.362449,84.86748881875,10.343718,84.99375961875Q10.324987,85.12003091875,10.300083,85.24523071875Q10.275179,85.37043091875,10.244162,85.49425841875001Q10.213144,85.61808581875,10.176089,85.74024201875Q10.139033,85.86239771875,10.096028,85.98258781875Q10.053022,86.10277841875,10.004172,86.22071461875Q9.9553223,86.33865071875,9.9007435,86.45404721875Q9.8461657,86.56944421875,9.7859907,86.68202401875Q9.7258148,86.79460331875,9.6601887,86.90409471875Q9.5945616,87.01358601875,9.5236416,87.11972621875Q9.4527206,87.22586531875,9.3766785,87.32839771875Q9.3006363,87.43092921875,9.2196541,87.52960681875Q9.1386719,87.62828251875,9.0529451,87.72286791875Q8.9672184,87.81745151875,8.876955,87.90771671875Q8.7866898,87.99798011875001,8.6921062,88.08370781875Q8.5975208,88.16943361875,8.4988441,88.25041581875Q8.4001675,88.33139801875001,8.2976351,88.40744021875Q8.1951036,88.48348231874999,8.0889645,88.55440331875Q7.9828243,88.62532331875,7.873333,88.69095041875Q7.7638416,88.75657651875,7.6512623,88.81675241875Q7.5386825,88.87692741875,7.4232855,88.93150521875Q7.307889,88.98608401875,7.1899529,89.03493371875Q7.0720167,89.08378371875,6.9518261,89.12678971875Q6.8316355,89.16979571875,6.7094798,89.20685171875Q6.5873237,89.24390671875,6.4634967,89.27492371875Q6.3396692,89.30594071875,6.214469,89.33084471875Q6.0892692,89.35574871875,5.9629984,89.37447971875Q5.8367271,89.39321171875,5.7096891,89.40572371875Q5.5826511,89.41823471875,5.4551516,89.42449771875Q5.3276525,89.43076171875,5.1999998,89.43076171875Q5.0723467,89.43076171875,4.9448481,89.42449771875Q4.817349,89.41823371875,4.690311,89.40572271875Q4.5632725,89.39321071875,4.4370008,89.37447971875Q4.3107295,89.35574871875,4.1855297,89.33084471875Q4.0603294,89.30594071875,3.9365025,89.27492371875Q3.8126755,89.24390571875,3.6905196,89.20685071875Q3.5683632,89.16979471875,3.4481723,89.12678971875Q3.3279815,89.08378371875,3.2100458,89.03493371875Q3.0921097,88.98608401875,2.9767129,88.93150521875Q2.8613162,88.87692741875,2.7487369,88.81675241875Q2.636157,88.75657651875,2.5266652,88.69095041875Q2.4171739,88.62532331875,2.3110344,88.55440331875Q2.204895,88.48348231874999,2.1023633,88.40744021875Q1.9998317,88.33139801875001,1.9011549,88.25041581875Q1.8024778,88.16943361875,1.7078934,88.08370681875Q1.6133088,87.99798011875001,1.5230446,87.90771671875Q1.4327804,87.81745151875,1.347054,87.72286791875Q1.2613276,87.62828251875,1.1803455,87.52960581875Q1.0993633,87.43092921875,1.0233207,87.32839681875001Q0.9472779,87.22586531875,0.87635785,87.11972621875Q0.80543774,87.01358601875,0.73981112,86.90409471875Q0.67418444,86.79460331875,0.61400932,86.68202401875Q0.5538342,86.56944421875,0.4992556,86.45404721875Q0.444677,86.33865071875,0.39582637,86.22071461875Q0.34697577,86.10277841875,0.30397084,85.98258781875Q0.26096588,85.86239721875,0.22391023,85.74024151875Q0.18685457,85.61808541875,0.15583746,85.49425841875001Q0.12482035,85.37043091875,0.099916525,85.24523071875Q0.075012699,85.12003091875,0.05628214,84.99376011875Q0.037551582,84.86748881875,0.02503942,84.74045081875Q0.012527254,84.61341281874999,0.0062636272,84.48591331875Q0,84.35841421875,0,84.23076151875Q0,84.10310841875,0.0062636272,83.97560981875Q0.012527254,83.84811071875001,0.02503942,83.72107271875Q0.037551582,83.59403421875,0.05628214,83.46776251874999Q0.075012699,83.34149121875,0.099916525,83.21629141875Q0.12482035,83.09109111875,0.15583746,82.96726421875Q0.18685457,82.84343721875,0.22391024,82.72128131875Q0.26096591,82.59912491875,0.30397084,82.47893401875Q0.34697577,82.35874321874999,0.39582637,82.24080751875Q0.444677,82.12287141875,0.49925563,82.00747461875Q0.55383426,81.89207791875,0.61400938,81.77949861875Q0.6741845,81.66691871875,0.73981118,81.55742691875Q0.8054378,81.44793561875,0.87635791,81.34179611875Q0.94727802,81.23565671875,1.0233208,81.13312501875Q1.0993634,81.03059341875,1.1803455,80.93191661875Q1.2613276,80.83323951875,1.347054,80.73865511875Q1.4327804,80.64407051875,1.5230446,80.55380631875Q1.6133088,80.46354211875,1.7078933,80.37781571875Q1.8024778,80.29208931875,1.9011548,80.21110721875Q1.9998317,80.13012501875,2.1023633,80.05408241875Q2.204895,79.97803961875,2.3110344,79.90711956875Q2.4171739,79.83619945875,2.5266654,79.77057283875Q2.636157,79.70494615875,2.7487369,79.64477103875Q2.8613162,79.58459591875,2.9767129,79.53001731875Q3.0921097,79.47543871875,3.2100458,79.42658808875Q3.3279815,79.37773748875,3.4481723,79.33473255875Q3.5683632,79.29172759875,3.6905193,79.25467194875Q3.8126755,79.21761628875,3.9365025,79.18659917875Q4.0603294,79.15558206875,4.1855297,79.13067824375Q4.3107295,79.10577441775,4.4370008,79.08704385875Q4.563272,79.06831330075,4.6903105,79.05580113875Q4.8173485,79.04328897275,4.9448476,79.03702534595Q5.0723467,79.03076171875,5.1999998,79.03076171875Q5.3276525,79.03076171875,5.4551516,79.03702534595Q5.5826507,79.04328897275,5.7096887,79.05580113875Q5.8367271,79.06831330075,5.9629979,79.08704385875Q6.0892692,79.10577441775,6.214469,79.13067824375Q6.3396692,79.15558206875,6.4634967,79.18659917875Q6.5873241,79.21761628875,6.7094803,79.25467195875Q6.831636,79.29172762875,6.9518261,79.33473255875Q7.0720167,79.37773748875,7.1899529,79.42658808875Q7.307889,79.47543871875,7.4232855,79.53001734875Q7.5386825,79.58459597875,7.6512623,79.64477109875Q7.7638416,79.70494621875,7.873333,79.77057289875Q7.9828243,79.83619951874999,8.0889645,79.90711962875Q8.1951036,79.97803973875,8.297636,80.05408251875Q8.4001675,80.13012511875,8.4988451,80.21110721875Q8.5975208,80.29208931875,8.6921062,80.37781571875Q8.7866898,80.46354211875,8.876955,80.55380631875Q8.9672184,80.64407051875,9.0529461,80.73865501875Q9.1386719,80.83323951875,9.2196541,80.93191651875Q9.3006363,81.03059341875,9.3766785,81.13312501875Q9.4527206,81.23565671875,9.5236416,81.34179611875Q9.5945616,81.44793561875,9.6601887,81.55742711875Q9.7258148,81.66691871875,9.7859907,81.77949861875Q9.8461657,81.89207791875,9.9007435,82.00747461875Q9.9553223,82.12287141875,10.004172,82.24080751875Q10.053022,82.35874321874999,10.096028,82.47893401875Q10.139034,82.59912491875,10.17609,82.72128101875Q10.213145,82.84343721875,10.244162,82.96726421875Q10.275179,83.09109111875,10.300083,83.21629141875Q10.324987,83.34149121875,10.343718,83.46776251874999Q10.36245,83.59403371875,10.374962,83.72107221875Q10.387474,83.84811021875,10.393737,83.97560931875Q10.4,84.10310841875,10.4,84.23076151875Z" fill="#EAEEF9" fill-opacity="1"/><path d="M107.53299732861328,45.54176116125488L108.33300032861328,109.94175916125488C108.33300032861328,112.14176416125488,106.53299732861328,113.84176016125488,104.33300032861328,113.84176016125488L41.52899932861328,113.84176016125488C39.32899932861328,113.84176016125488,37.52899932861328,112.04176516125489,37.52899932861328,109.94175916125488L37.52899932861328,27.141762261254883C37.52899932861328,24.941762161254882,39.32899932861328,23.241762161254883,41.52899932861328,23.241762161254883L87.03300132861328,23.241762161254883L107.53299732861328,45.54176116125488Z" fill="url(#master_svg1__054548)" fill-opacity="1" filter="url(#master_svg0_0_401461)"/><path d="M70.22899856567383,36.74076222910156L48.128998565673825,36.74076222910156C47.42899858567383,36.74076222910156,46.82899856567383,36.14076232910156,46.82899856567383,35.44076232910156C46.82899856567383,34.740762349101566,47.42899858567383,34.14076232910156,48.128998565673825,34.14076232910156L70.22899856567383,34.14076232910156C70.92899856567382,34.14076232910156,71.52899956567383,34.740762349101566,71.52899956567383,35.44076232910156C71.52899956567383,36.14076232910156,70.92899856567382,36.74076222910156,70.22899856567383,36.74076222910156Z" fill="#D5DDEA" fill-opacity="1"/><path d="M59.72899856567383,43.94176244272461L48.128998565673825,43.94176244272461C47.42899858567383,43.94176244272461,46.82899856567383,43.34176254272461,46.82899856567383,42.64176254272461C46.82899856567383,41.94176256272461,47.42899858567383,41.34176254272461,48.128998565673825,41.34176254272461L59.628998565673825,41.34176254272461C60.32899856567383,41.34176254272461,60.92899856567383,41.94176256272461,60.92899856567383,42.64176254272461C60.92899856567383,43.34176254272461,60.32899856567383,43.94176244272461,59.72899856567383,43.94176244272461Z" fill="#D5DDEA" fill-opacity="1"/><path d="M87.03299713134766,23.241762161254883L87.03299713134766,41.04176116125488C87.03299713134766,43.54176116125488,89.23299713134766,45.54176116125488,91.73299693134766,45.54176116125488L107.53299713134766,45.54176116125488" fill="#D5DDEA" fill-opacity="1"/><path d="M56.762001037597656,36.50676132202149L61.51400093759766,19.746761322021484L81.03300103759766,21.994761222021484L74.21700103759765,32.916761322021486L79.49500103759766,37.13376032202149L68.13200103759766,61.98676332202148L68.76500103759766,42.745762322021484L56.762001037597656,36.50676132202149Z" fill="#EAEEF9" fill-opacity="1"/><path d="M60.147097361572264,17.84917827297363L56.36509704157226,12.157177982973632L58.03090668157227,11.050345362973633L61.812906761572265,16.74234537297363L60.147097361572264,17.84917827297363Z" fill-rule="evenodd" fill="#A2ABBE" fill-opacity="1"/><path d="M72.50852886347656,0.061539830749999996L72.06452896347656,14.48054071875L70.06547629347656,14.41898371875L70.50947627347657,-0.00001639324999999983L72.50852886347656,0.061539830749999996Z" fill-rule="evenodd" fill="#A2ABBE" fill-opacity="1"/><path d="M87.05126575830079,4.746160360085449L81.01526575830079,17.849159650085447L79.19873875830078,17.012363650085447L85.23473885830079,3.9093629400854493L87.05126575830079,4.746160360085449Z" fill-rule="evenodd" fill="#A2ABBE" fill-opacity="1"/><path d="M59.57099819946289,89.40975956044922C59.15099819946289,89.40975956044922,58.81499820946289,89.24175926044921,58.478998209462894,88.98975946044922C57.89099819946289,88.40175966044922,57.89099819946289,87.39275936044922,58.478998209462894,86.80475946044922C62.34299799946289,83.02475956044921,67.4679984994629,80.92375946044922,72.9289981994629,80.92375946044922C78.3899971994629,80.92375946044922,83.51299819946288,83.02475956044921,87.38299719946289,86.80475946044922C87.96299719946289,87.39275936044922,87.96299719946289,88.40175966044922,87.38299719946289,88.98975946044922C86.79299719946289,89.57775976044923,85.78299919946289,89.57775976044923,85.19299919946289,88.98975946044922C81.9229981994629,85.71275946044922,77.5499971994629,83.94875956044922,72.9289981994629,83.94875956044922C68.30799819946289,83.94875956044922,63.93999819946289,85.71275946044922,60.66299819946289,88.98975946044922C60.32699819946289,89.24175926044921,59.99099809946289,89.40975956044922,59.57099819946289,89.40975956044922Z" fill="#989FB0" fill-opacity="1"/><path d="M64.86399839946289,66.89376024545898L66.87999819946289,64.87776044545899C67.4679984994629,64.28976034545899,67.4679984994629,63.281760345458984,66.87999819946289,62.69376033545898C66.29199789946288,62.104760345458985,65.28399799946288,62.104760345458985,64.69599819946289,62.69376033545898L62.67999839946289,64.70976044545898L60.66299819946289,62.69376033545898C60.07499809946289,62.104760345458985,59.06699819946289,62.104760345458985,58.478998209462894,62.69376033545898C57.89099819946289,63.281760345458984,57.89099819946289,64.28976034545899,58.478998209462894,64.87776044545899L60.49499819946289,66.89376024545898L58.478998209462894,68.91076044545899C57.89099819946289,69.49876024545898,57.89099819946289,70.50676064545898,58.478998209462894,71.09475994545899C58.81499820946289,71.43076034545899,59.15099819946289,71.51476004545898,59.57099819946289,71.51476004545898C59.99099809946289,71.51476004545898,60.32699819946289,71.34676074545898,60.66299819946289,71.09475994545899L62.67999839946289,69.07876014545899L64.69599819946289,71.09475994545899C65.03199819946289,71.43076034545899,65.3679980994629,71.51476004545898,65.78799819946289,71.51476004545898C66.20799829946289,71.51476004545898,66.54399779946289,71.34676074545898,66.87999819946289,71.09475994545899C67.4679984994629,70.50676064545898,67.4679984994629,69.49876024545898,66.87999819946289,68.91076044545899L64.86399839946289,66.89376024545898Z" fill="#989FB0" fill-opacity="1"/><path d="M85.2830028296875,66.89376024545898L87.2930031296875,64.87776044545899C87.8830032296875,64.28976034545899,87.8830032296875,63.281760345458984,87.2930031296875,62.69376033545898C86.7030029296875,62.104760345458985,85.7030029296875,62.104760345458985,85.1130027296875,62.69376033545898L83.0930028296875,64.70976044545898L81.0830030296875,62.69376033545898C80.4930029296875,62.104760345458985,79.4820029296875,62.104760345458985,78.8940029396875,62.69376033545898C78.3060029296875,63.281760345458984,78.3060029296875,64.28976034545899,78.8940029396875,64.87776044545899L80.9130029296875,66.89376024545898L78.8940029396875,68.91076044545899C78.3060029296875,69.49876024545898,78.3060029296875,70.50676064545898,78.8940029396875,71.09475994545899C79.2300029396875,71.43076034545899,79.5660029296875,71.51476004545898,79.9860029296875,71.51476004545898C80.4060028296875,71.51476004545898,80.7430029296875,71.34676074545898,81.0830030296875,71.09475994545899L83.0930028296875,69.07876014545899L85.1130027296875,71.09475994545899C85.44300272968749,71.43076034545899,85.7830028296875,71.51476004545898,86.2030029296875,71.51476004545898C86.6230030296875,71.51476004545898,86.96300312968751,71.34676074545898,87.2930031296875,71.09475994545899C87.8830032296875,70.50676064545898,87.8830032296875,69.49876024545898,87.2930031296875,68.91076044545899L85.2830028296875,66.89376024545898Z" fill="#989FB0" fill-opacity="1"/></svg>