<svg xmlns="http://www.w3.org/2000/svg" viewBox="0 0 320 240" fill="none" aria-hidden="true" class="ww-empty-ill">
  <ellipse cx="160" cy="218" rx="78" ry="6" fill="var(--ww-ink)" opacity="0.07"/>
  <!-- RSSÆ RSS 'żț + zàh -->
  <g transform="translate(72 72) scale(2.4)" stroke="var(--ww-ink-muted)" stroke-width="1.1" stroke-linecap="round" stroke-linejoin="round" fill="none">
    <path d="M4 11a9 9 0 0 1 9 9"/>
    <path d="M4 4a16 16 0 0 1 16 16"/>
    <circle cx="5" cy="19" r="1" fill="var(--ww-ink-muted)" stroke="none"/>
  </g>
  <rect x="168" y="78" width="88" height="38" rx="9" fill="var(--ww-elevated)" stroke="var(--ww-ink-faint)" stroke-opacity="0.3" stroke-width="1.25"/>
  <rect x="180" y="92" width="36" height="5" rx="1.5" fill="var(--ww-ink-faint)" opacity="0.22"/>
  <rect x="180" y="102" width="56" height="4" rx="1.5" fill="var(--ww-ink-faint)" opacity="0.14"/>
  <rect x="168" y="128" width="88" height="34" rx="9" fill="var(--ww-inset)" stroke="var(--ww-ink-faint)" stroke-opacity="0.25" stroke-width="1.25"/>
  <rect x="180" y="140" width="32" height="4" rx="1.5" fill="var(--ww-ink-faint)" opacity="0.18"/>
  <rect x="180" y="150" width="48" height="4" rx="1.5" fill="var(--ww-ink-faint)" opacity="0.12"/>
  <rect x="168" y="172" width="88" height="34" rx="9" fill="var(--ww-inset)" stroke="var(--ww-ink-faint)" stroke-opacity="0.2" stroke-width="1.25" stroke-dasharray="4 5"/>
</svg>
